<?xml version="1.0" standalone="no"?>
<!DOCTYPE svg PUBLIC "-//W3C//DTD SVG 20010904//EN"
 "http://www.w3.org/TR/2001/REC-SVG-20010904/DTD/svg10.dtd">
<svg version="1.0" xmlns="http://www.w3.org/2000/svg"
 width="150.000000pt" height="151.000000pt" viewBox="0 0 150.000000 151.000000"
 preserveAspectRatio="xMidYMid meet">
<metadata>
Created by potrace 1.11, written by Peter Selinger 2001-2013
</metadata>
<g transform="translate(0.000000,151.000000) scale(0.100000,-0.100000)"
fill="#000000" stroke="none">
<path d="M527 1454 c-43 -23 -77 -104 -77 -182 0 -76 24 -143 116 -317 68
-130 118 -250 129 -308 6 -32 5 -37 -12 -37 -15 0 -23 14 -37 59 -45 150 -207
358 -318 409 -120 55 -258 -3 -298 -123 -18 -55 -8 -179 19 -239 l22 -50 46
53 c134 153 298 129 392 -58 l22 -43 -21 -15 c-16 -11 -20 -23 -18 -51 3 -32
7 -37 31 -40 26 -3 27 -5 27 -61 0 -110 -70 -148 -140 -76 -41 43 -50 34 -50
-53 0 -116 50 -178 138 -169 91 10 131 86 157 310 6 43 8 47 34 47 37 0 43 -8
26 -34 -8 -11 -15 -36 -15 -54 0 -19 -16 -83 -36 -142 -25 -73 -35 -116 -30
-134 6 -24 108 -136 124 -136 14 0 113 102 122 126 7 18 1 50 -25 130 -19 59
-35 121 -35 138 0 17 -7 44 -15 60 -20 37 -20 36 19 36 l33 0 6 -73 c9 -108
41 -200 83 -242 29 -29 42 -35 77 -35 91 0 145 75 134 185 -3 30 -8 59 -12 64
-3 6 -21 -6 -39 -26 -35 -39 -80 -48 -110 -24 -19 16 -36 73 -36 119 0 25 4
32 19 32 48 0 67 64 30 99 l-22 20 27 55 c52 105 153 161 246 136 58 -16 113
-54 146 -101 14 -21 30 -39 34 -39 26 0 65 161 56 233 -12 108 -106 197 -207
197 -138 0 -339 -202 -414 -417 -18 -51 -29 -69 -44 -71 -12 -2 -21 -1 -21 1
0 28 71 200 146 352 102 208 120 261 111 335 -20 165 -151 220 -275 115 l-33
-28 -22 21 c-66 61 -149 79 -210 46z"/>
</g>
</svg>
