<?xml version="1.0" standalone="no"?>
<!DOCTYPE svg PUBLIC "-//W3C//DTD SVG 1.1//EN" "http://www.w3.org/Graphics/SVG/1.1/DTD/svg11.dtd" >
<svg xmlns="http://www.w3.org/2000/svg">
<metadata></metadata>
<defs>
<font id="cocobold_condensed" horiz-adv-x="577" >
<font-face units-per-em="2048" ascent="1546" descent="-502" />
<missing-glyph horiz-adv-x="512" />
<glyph horiz-adv-x="2048" />
<glyph horiz-adv-x="2048" />
<glyph unicode="&#xd;" horiz-adv-x="2048" />
<glyph horiz-adv-x="567" d="M0 463v24h238q81 0 132 -45t76 -114q29 -78 29 -156h-18h-19v4v14q-4 25 -12 43q-19 60 -78 60h-221q-41 0 -70 25.5t-41 60.5q-16 43 -16 84zM330 172v25h18q42 0 70.5 -25.5t40.5 -62.5q16 -43 16 -84v-316h-145v463z" />
<glyph unicode=" "  horiz-adv-x="512" />
<glyph unicode="&#x09;" horiz-adv-x="512" />
<glyph unicode="&#xa0;" horiz-adv-x="512" />
<glyph unicode="!" horiz-adv-x="247" d="M0 98q0 40 21.5 68.5t52.5 28.5t52 -28.5t21 -68.5q0 -41 -21 -69.5t-52 -28.5t-52.5 28.5t-21.5 69.5zM0 293v1341q0 41 16 84q12 35 41.5 60.5t71.5 25.5h18v-1341q0 -41 -16 -84q-12 -35 -41 -60.5t-70 -25.5h-2h-18z" />
<glyph unicode="&#x22;" horiz-adv-x="460" d="M0 1636v146v24h18q43 0 72 -25t41 -61q16 -43 16 -84v-172h-18h-2q-41 0 -70 26t-41 62q-16 43 -16 84zM219 1636v146v24h19q43 0 71.5 -25t40.5 -61q17 -46 17 -84v-172h-19h-2q-41 0 -68.5 25.5t-41.5 62.5q-17 52 -17 84z" />
<glyph unicode="#" horiz-adv-x="663" d="M0 463v24h109v246q-21 4 -46 19q-27 16 -45 54.5t-18 94.5v25h109v123q0 41 16 84q12 36 40.5 61t70.5 25h18v-293h74v123q0 41 16 84q12 36 41 61t72 25h16v-295q20 -3 45 -19q66 -40 66 -149v-25h-111v-246q22 -4 45 -18q66 -40 66 -150v-24h-111v-123q0 -41 -14 -84 q-14 -36 -42 -61t-69 -25h-2h-18v293h-74v-123q0 -41 -14 -84q-14 -36 -42.5 -61t-70.5 -25h-18v295q-23 4 -46 18q-63 38 -63 150zM254 487h74v244h-74v-244z" />
<glyph unicode="$" horiz-adv-x="561" d="M0 330v24h18q31 0 62 -20q28 -17 46.5 -55t18.5 -95q0 -59 29 -92q10 -10 27 -20v532q-66 13 -113 60q-88 84 -88 251q0 166 88 254q45 42 113 60v149h73v-149q67 -18 113 -60q88 -88 88 -254v-24h-18q-31 0 -64 20q-27 17 -46 56t-19 96q0 59 -27 90q-10 13 -27 21v-531 q62 -13 113 -59q88 -84 88 -254q0 -168 -88 -252q-53 -48 -113 -60v-149h-73v149q-63 12 -113 60q-88 84 -88 252zM145 770q0 -59 29 -92q17 -17 27 -21v517q-15 -6 -27 -21q-29 -29 -29 -90v-293zM274 72l11 8q11 7 16 12q27 35 27 92v293q0 59 -27 90q-5 7 -27 23v-518z " />
<glyph unicode="%" horiz-adv-x="563" d="M0 0v317q0 106 34.5 174.5t86.5 102.5q16 11 34 19t32 12t25.5 6t18.5 3l7 1h4h10q19 5 33 14q45 31 45 107v293q0 41 14 84q14 37 42.5 61.5t70.5 24.5h18v-318q0 -197 -119 -276q-59 -39 -118 -39h-5q-2 -2 -10 -2q-17 -4 -33 -15q-43 -30 -45 -106v-293 q1 -56 -17.5 -94.5t-45.5 -55.5q-33 -20 -64 -20h-18zM0 1049q0 108 61 147q31 23 66 23l2 -50h-2q-13 0 -21 -6q-14 -14 -14 -41v-147q0 -27 14 -41q11 -8 21 -8h2l-2 -47q-36 0 -66 22q-61 39 -61 148zM129 879v47q10 0 21 8q14 14 14 41v147q0 27 -14 41q-8 6 -21 6v50 q35 0 66 -23q61 -39 61 -147q0 -109 -61 -148q-30 -22 -66 -22zM219 170q0 107 62 147q22 14 65 25l2 -49q-11 0 -22 -8q-15 -11 -15 -41v-146q0 -30 15 -41q8 -8 22 -8l-2 -49q-29 0 -65 23q-62 46 -62 147zM348 0v49q13 0 21 8q16 12 16 41v146q0 29 -16 41l-21 8v49h2 q1 0 8.5 -2l15 -4t19 -7t21.5 -12q61 -39 61 -147q0 -102 -61 -147q-33 -23 -66 -23z" />
<glyph unicode="&#x26;" horiz-adv-x="632" d="M2 317v293q0 198 119 277q10 6 26 14q-9 7 -26 17q-119 79 -119 276v293q0 107 34 175t85 103q59 39 119 39q59 0 118 -39q51 -35 85 -103t34 -175v-293q0 -106 -34.5 -173.5t-84.5 -102.5q-59 -39 -118 -39l-4 -2h-11q-15 -4 -32 -15q-46 -32 -46 -106v-586 q0 -65 37 -98q23 -23 52 -23h4h4q6 0 10 2q18 5 33 12q45 31 45 107v147q0 198 119 277q16 11 34.5 19t32.5 12t25.5 6t18.5 3l7 1v-25v-24h-4q-2 -2 -10 -2q-19 -4 -33 -15q-45 -31 -45 -106v-146q0 -107 -34 -175t-85 -103q-59 -39 -118 -39q-60 0 -119 39q-51 35 -85 103 t-34 175zM147 1049q0 -64 37 -101q14 -13 52 -22h4h4q2 2 10 2q19 5 33 14q45 31 45 107v585q0 66 -37 99q-22 22 -51 22h-4h-4q-7 0 -11 -2q-18 -4 -32 -14q-46 -28 -46 -105v-585z" />
<glyph unicode="'" horiz-adv-x="241" d="M0 1636v146v24h18q42 0 70.5 -24.5t42.5 -61.5q14 -43 14 -84v-172h-18q-42 0 -70.5 25.5t-40.5 62.5q-16 43 -16 84z" />
<glyph unicode="(" horiz-adv-x="317" d="M0 319v1172q0 196 121 276q57 39 117 39v-22v-25h-5q-2 -2 -10 -2q-19 -5 -33 -14q-45 -31 -45 -107v-1462q0 -67 37 -100q19 -15 51 -23h5v-24v-23q-58 0 -117 39q-121 80 -121 276z" />
<glyph unicode=")" horiz-adv-x="337" d="M0 0v49h4q6 0 10 2q18 5 33 12q45 31 45 107v1464q0 66 -37 99q-22 22 -51 22h-4v25v24q60 0 119 -39q51 -35 85 -103t34 -175v-1170q0 -107 -34 -175t-85 -103q-59 -39 -119 -39z" />
<glyph unicode="*" horiz-adv-x="350" d="M0 1468v25q0 108 61 147q24 18 43 21q0 4 -2 6q-7 21 -30 21t-40 15t-24 36q-8 25 -8 47v24h16q41 0 70.5 -23.5t42.5 -57.5q10 -29 14 -60l4 2q17 17 17 41q0 61 37 86q18 12 37 12h18v-24q0 -107 -63 -148q-22 -16 -43 -20q0 -4 2 -6q7 -21 30 -21t40 -15t24 -36 q10 -31 10 -47v-25h-18h-2q-41 0 -69 24t-40 58q-12 27 -16 60q-1 0 -2.5 -1t-2.5 -1q-16 -16 -16 -41q0 -32 -11 -55t-26 -31q-20 -13 -37 -13h-16zM127 1638v2v-2zM127 1638v2v-2z" />
<glyph unicode="+" horiz-adv-x="573" d="M2 526v25v117v24h174v234h19h88h18v-234h158h18v-24v-117v-25h-176v-235h-18h-88h-19v235h-174z" />
<glyph unicode="," horiz-adv-x="329" d="M0 -117h2q2 2 10 2q19 4 33 15q45 29 45 104q0 110 66 150q33 20 63 20h19v-24q0 -105 -35 -173t-86 -102q-26 -17 -55.5 -27t-45.5 -12l-16 -2v25v24z" />
<glyph unicode="-" horiz-adv-x="581" d="M0 508v24v117v25h475v-25v-117v-24h-475z" />
<glyph unicode="." horiz-adv-x="264" d="M0 98q0 40 21.5 68.5t52.5 28.5t52 -28.5t21 -68.5q0 -41 -21 -69.5t-52 -28.5t-52.5 28.5t-21.5 69.5z" />
<glyph unicode="/" horiz-adv-x="462" d="M0 0v610q0 106 34.5 174.5t86.5 102.5q4 4 8 6v33h2q2 2 10 2q21 4 33 14q45 29 45 107v585q0 110 66 150q31 20 63 20h19v-610q0 -196 -121 -276q-1 -1 -4 -3.5t-4 -3.5v-10v-22q-1 0 -5 -2h-10q-17 -4 -33 -15q-43 -30 -45 -106v-586q0 -109 -63 -150q-33 -20 -64 -20 h-18z" />
<glyph unicode="0" d="M0 317v584q0 200 119 279q59 39 119 39q57 0 116 -39q52 -34 86.5 -103t34.5 -176v-584q0 -198 -121 -278q-59 -39 -116 -39q-60 0 -119 39q-119 79 -119 278zM145 170q0 -68 37 -98q23 -23 51 -23h5h4q6 0 10 2q18 5 33 12q45 31 45 107v438q-47 -22 -92 -22h-5 q-2 -2 -10 -2q-17 -4 -33 -15q-45 -31 -45 -106v-293zM145 610q22 11 44.5 16.5t35.5 7.5l13 1h4h10q19 5 33 14q45 31 45 107v293q0 63 -37 100q-25 20 -51 20h-4h-5q-6 0 -10 -2q-24 -6 -33 -12q-45 -31 -45 -106v-439z" />
<glyph unicode="1" horiz-adv-x="264" d="M2 0v25v1024q0 109 66 149q35 21 63 21h19v-25v-457q0 -85 -0.5 -226t-0.5 -224.5t1 -116.5q0 -107 -66 -150q-33 -20 -64 -20h-18z" />
<glyph unicode="2" horiz-adv-x="557" d="M2 307v6v4v5v20q8 177 119 252q16 11 34.5 19t32.5 12t26 6t19 3l7 1h4h10q19 5 33 14q45 31 45 107v293q0 63 -37 100q-23 20 -51 20h-4h-4q-7 0 -11 -2q-14 0 -32 -12q-46 -32 -46 -106q0 -109 -63 -150q-33 -20 -64 -20h-18v22q0 107 34.5 176t84.5 103q59 39 119 39 q59 0 118 -39q50 -34 84.5 -103t34.5 -176q0 -106 -34.5 -173.5t-84.5 -102.5q-59 -39 -118 -39h-4q-1 0 -5 -1t-6 -1q-15 -4 -32 -15q-46 -32 -46 -106v-293q0 -65 37 -98q23 -23 52 -23h4h4q6 0 10 2q18 5 33 12q45 31 45 107q0 108 63 149q33 23 64 23h18v-25 q0 -107 -34 -175t-85 -103q-59 -39 -118 -39q-60 0 -119 39q-116 80 -119 268z" />
<glyph unicode="3" horiz-adv-x="563" d="M0 317v25h18q31 0 64 -23q63 -41 63 -149q0 -68 37 -98q23 -23 51 -23h5h4q6 0 10 2q18 5 33 12q45 31 45 107v293q0 67 -37 100q-19 15 -51 23h-4v24v25h4h10q19 5 33 14q45 31 45 107v293q0 63 -37 100q-25 20 -51 20h-4h-5q-6 0 -10 -2q-15 0 -33 -12 q-45 -31 -45 -106q0 -109 -63 -150q-15 -9 -31 -14t-25 -5l-8 -1h-18v22q0 200 119 279q59 39 119 39q57 0 116 -39q52 -34 86.5 -103t34.5 -176q0 -196 -121 -276q-12 -9 -24 -15q8 -4 24 -16q49 -30 83 -93t38 -159v-20v-5v-6v-6q-3 -188 -121 -266q-59 -39 -116 -39 q-60 0 -119 39q-119 79 -119 278zM238 610z" />
<glyph unicode="4" horiz-adv-x="540" d="M0 901v148q0 109 66 149q33 21 63 21q9 0 16 -13l2 -6v-444q0 -66 35 -101q25 -20 54 -20h2l7 -1q7 -1 18.5 -3t25.5 -6t32.5 -12t34.5 -19q119 -79 119 -277v-147q0 -41 -14 -84q-14 -36 -42 -61t-69 -25h-2h-18v463q0 70 -37 100q-16 14 -51 23h-4q-58 0 -117 39 q-121 80 -121 276z" />
<glyph unicode="5" horiz-adv-x="569" d="M0 317v25h18q31 0 64 -23q63 -41 63 -149q0 -68 37 -98q23 -23 51 -23h5h4q6 0 10 2q18 5 33 12q45 31 45 107v293q0 67 -37 100q-19 15 -51 23h-4q-60 0 -119 39q-119 79 -119 276v25h18q31 -1 64 -21q63 -41 63 -149q0 -68 37 -101q23 -20 51 -20h5l7 -1q7 -1 18 -3 t25 -6t32 -12t34 -19q52 -34 86.5 -102.5t34.5 -174.5q0 -198 -121 -278q-59 -39 -116 -39q-60 0 -119 39q-119 79 -119 278zM219 901q0 80 29 158q62 160 209 160h18v-25q0 -41 -16 -84q-12 -35 -41.5 -60.5t-71.5 -25.5q-52 0 -74 -49q-16 -33 -16 -68v-4v-2h-18h-19z" />
<glyph unicode="6" horiz-adv-x="557" d="M0 317v584q0 200 119 279q59 39 119 39q57 0 116 -39q52 -34 86.5 -103t34.5 -176v-22h-18q-31 0 -64 20q-27 17 -45.5 55.5t-17.5 94.5q0 63 -37 100q-25 20 -51 20h-4h-5q-6 0 -10 -2q-24 -6 -33 -12q-45 -31 -45 -106v-879q0 -68 37 -98q23 -23 51 -23h5h4q6 0 10 2 q18 5 33 12q45 31 45 107v293q0 67 -37 100q-19 15 -51 23h-4v24v25l7 -1q7 -1 18 -3t25 -6t32 -12t34 -19q52 -34 86.5 -102.5t34.5 -174.5v-14q-3 -186 -121 -264q-59 -39 -116 -39q-60 0 -119 39q-119 79 -119 278z" />
<glyph unicode="7" horiz-adv-x="538" d="M2 170v147q0 198 119 277q16 11 34.5 19t32.5 12t26 6t19 3l7 1h2h12q20 5 31 14q45 29 45 107q0 110 65 149q35 21 64 21h18v-25q0 -196 -121 -276q-26 -17 -55 -27t-45 -11l-16 -1h-4q-2 -2 -11 -2q-18 -4 -32 -15q-46 -32 -46 -106v-463h-18h-2q-41 0 -69 25t-42 61 q-14 43 -14 84zM2 1194v25h16q81 0 132.5 -45.5t76.5 -114.5q31 -78 31 -158h-37v6q0 1 -1 6t-1 9q-5 29 -10 43q-23 59 -80 59q-42 0 -70.5 25t-42.5 61q-14 43 -14 84z" />
<glyph unicode="8" horiz-adv-x="563" d="M0 307v6v4v5v20q4 96 38 159t81 93l12 8t14 8q-6 3 -26 15q-119 79 -119 278q0 198 119 277q59 39 119 39q57 0 116 -39q52 -34 86.5 -103t34.5 -176q0 -196 -121 -276q-12 -9 -24 -15q8 -4 24 -16q51 -32 86 -101.5t35 -175.5q0 -198 -121 -278q-59 -39 -114 -39h-2 q-60 0 -119 39q-116 80 -119 268zM145 170q0 -68 37 -98q23 -23 51 -23h5h4q6 0 10 2q17 4 33 15q45 27 45 104v293q0 67 -37 100q-19 15 -51 23h-4h-5q-1 0 -4.5 -1t-5.5 -1q-17 -4 -33 -15q-45 -31 -45 -106v-293zM145 756q0 -68 37 -101q23 -20 51 -20h5h4h10q19 5 33 14 q45 31 45 107v293q0 63 -37 100q-25 20 -51 20h-4h-5q-6 0 -10 -2q-15 0 -33 -12q-45 -31 -45 -106v-293z" />
<glyph unicode="9" horiz-adv-x="579" d="M2 317v25h18q31 0 64 -23q63 -41 63 -149q0 -65 37 -98q23 -23 52 -23h4h4q6 0 10 2q18 5 33 12q45 31 45 107v879q0 63 -37 100q-23 20 -51 20h-4h-4q-7 0 -11 -2q-14 0 -32 -12q-46 -32 -46 -106v-293q0 -64 37 -101q22 -20 52 -20h4v-25v-24q-60 0 -119 39 q-50 35 -84.5 102.5t-34.5 173.5q0 107 34.5 176t84.5 103q59 39 119 39q59 0 118 -39q50 -34 84.5 -103t34.5 -176v-584q0 -107 -34 -175t-85 -103q-59 -39 -118 -39q-60 0 -119 39q-51 35 -85 103t-34 175z" />
<glyph unicode=":" horiz-adv-x="231" d="M0 98q0 40 21.5 68.5t52.5 28.5t52 -28.5t21 -68.5q0 -41 -21 -69.5t-52 -28.5t-52.5 28.5t-21.5 69.5zM0 1122q0 40 21.5 68.5t52.5 28.5t52 -28.5t21 -68.5q0 -41 -21 -69.5t-52 -28.5t-52.5 28.5t-21.5 69.5z" />
<glyph unicode=";" horiz-adv-x="323" d="M0 -121q2 0 4 2h10q19 4 33 15q45 31 45 104q0 110 66 150q31 20 63 20h17v-25q0 -195 -119 -274q-59 -39 -119 -39v47zM92 1098q0 40 21.5 68t52.5 28q29 0 50.5 -28t21.5 -68q0 -41 -21.5 -70t-50.5 -29q-31 0 -52.5 29t-21.5 70z" />
<glyph unicode="&#x3c;" horiz-adv-x="362" d="M0 649l233 309l31 43v-215l-102 -137l102 -135v-217z" />
<glyph unicode="=" horiz-adv-x="552" d="M0 293v24v117v25h475v-25v-117v-24h-457h-18zM0 762v24v117v25h475v-25v-117v-24h-475z" />
<glyph unicode="&#x3e;" horiz-adv-x="348" d="M0 295v215l102 135l-102 137v215l262 -352l-231 -309z" />
<glyph unicode="?" horiz-adv-x="567" d="M0 1462v25q0 199 119 278q59 39 119 39q57 0 116 -39q121 -80 121 -278v-293q0 -196 -121 -276q-6 -6 -8 -7v-10v-22l-2 -2h-12q-17 -4 -33 -15q-43 -30 -43 -106q-2 -146 0 -293q0 -107 -66 -150q-33 -20 -63 -20h-18v317q0 106 34.5 174.5t85.5 102.5q3 3 9 6v33h2 q4 2 12 2q20 5 31 14q45 29 45 107v585q0 68 -35 99q-24 22 -53 22h-2h-5q-6 0 -10 -2q-21 -4 -33 -14q-45 -27 -45 -105q0 -106 -65 -151q-14 -9 -29.5 -14t-24.5 -6l-8 -1h-18zM109 98q0 40 21 68.5t52 28.5t52.5 -28.5t21.5 -68.5q0 -41 -21.5 -69.5t-52.5 -28.5 t-52 28.5t-21 69.5z" />
<glyph unicode="@" horiz-adv-x="802" d="M0 25v876q0 200 119 279q59 39 119 39v-50h-5q-6 0 -10 -2q-24 -5 -33 -12q-45 -31 -45 -106v-1170h-18h18q0 -68 37 -98q23 -23 51 -23h5v-49q-60 0 -119 39q-119 79 -119 277zM219 317v146q0 199 119 278q59 39 119 39v-24v-25h-4q-7 0 -11 -2q-16 -3 -32 -14 q-45 -27 -45 -105v-440h-19h19q0 -69 36 -98q23 -23 52 -23h4h2q6 0 12 2q18 5 33 12q43 30 43 107v879q0 65 -35 100q-25 20 -53 20h-2v25v25q57 0 116 -39q52 -34 86.5 -103t34.5 -176v-584q0 -198 -121 -278q-59 -39 -116 -39q-60 0 -119 39q-119 79 -119 278zM457 -242 h2q6 0 12 2q17 4 33 15q43 26 43 104q0 57 19 95t46 55q33 20 64 20h18v-24q0 -106 -34.5 -174.5t-86.5 -102.5q-26 -17 -55 -27t-45 -11l-16 -1v49z" />
<glyph unicode="A" d="M2 317v584q0 107 34.5 176t84.5 103q59 39 119 39v-50h-4q-7 0 -11 -2q-22 -6 -32 -12q-46 -32 -46 -106v-879q0 -65 37 -98q23 -23 52 -23h4h4q6 0 10 2q18 5 33 12q45 31 45 107v1464q0 66 -37 99q-22 22 -51 22h-4h-4q-7 0 -11 -2q-18 -4 -32 -14q-46 -28 -46 -105 q0 -110 -63 -151q-35 -21 -64 -21h-18v25q0 107 34 175t85 103q59 39 119 39q59 0 118 -39q51 -35 85 -103t34 -175v-1170q0 -107 -34 -175t-85 -103q-59 -39 -118 -39q-60 0 -119 39q-51 35 -85 103t-34 175z" />
<glyph unicode="B" d="M2 317v1487h18q42 0 70.5 -25t42.5 -61q14 -43 14 -84v-1464q0 -65 37 -98q23 -23 52 -23h4h4q6 0 10 2q18 5 33 12q45 31 45 107v879q0 63 -37 100q-23 20 -51 20h-4v50h4q1 0 4.5 1t5.5 1q19 5 33 14q45 31 45 106v293q0 66 -37 99q-22 22 -51 22h-4v25v24 q59 0 118 -39q111 -75 119 -254v-24q0 -107 -34 -176t-85 -101l-12 -8t-14 -8q16 -8 26 -14q119 -79 119 -279v-584q0 -107 -34 -175t-85 -103q-59 -39 -118 -39q-60 0 -119 39q-51 35 -85 103t-34 175z" />
<glyph unicode="C" horiz-adv-x="561" d="M0 317v1170q0 199 119 278q59 39 119 39q57 0 116 -39q121 -80 121 -278v-25h-18q-29 0 -64 21q-27 17 -45 56q-18 37 -18 89v6q0 66 -37 99q-24 22 -51 22h-4h-5q-6 0 -10 -2q-19 -5 -33 -14q-45 -27 -45 -105v-1464q0 -68 37 -98q23 -23 51 -23h5h4q6 0 10 2 q18 5 33 12q45 31 45 107q0 108 63 149q33 23 64 23h18v-25q0 -198 -121 -278q-59 -39 -116 -39q-60 0 -119 39q-119 79 -119 278z" />
<glyph unicode="D" horiz-adv-x="575" d="M0 0v1780v24h18q42 0 70.5 -25t42.5 -61q14 -43 14 -84v-1634h-145zM238 0v49h4q6 0 10 2q18 5 33 12q45 31 45 107v1464q0 66 -37 99q-22 22 -51 22h-4v25v24q59 0 118 -39q119 -79 119 -278v-1170q0 -199 -119 -278q-59 -39 -118 -39z" />
<glyph unicode="E" horiz-adv-x="561" d="M0 317v1170q0 199 119 278q59 39 119 39q57 0 116 -39q121 -80 121 -278v-586q0 -196 -121 -276q-59 -39 -116 -39v24v25h4h10q19 5 33 14q45 31 45 107v878q0 66 -37 99q-24 22 -51 22h-4h-5q-6 0 -10 -2q-19 -5 -33 -14q-45 -27 -45 -105v-1464q0 -68 37 -98 q23 -23 51 -23h5h4q6 0 10 2q18 5 33 12q45 31 45 107q0 108 63 149q33 23 64 23h18v-25q0 -198 -121 -278q-59 -39 -116 -39q-60 0 -119 39q-119 79 -119 278z" />
<glyph unicode="F" horiz-adv-x="559" d="M0 4v23v1757v24h18q28 0 64 -22q63 -41 63 -150v-1609v-23h-145zM219 1198v25h19q28 0 63 -21q27 -17 46.5 -56t19.5 -95q0 -69 34 -99q24 -22 54 -22h2v-25v-24q-58 0 -117 39q-121 80 -121 278zM238 1759v49l7 -1q7 -1 18.5 -3t25.5 -6t32.5 -12t34.5 -19 q119 -79 119 -276v-25h-18q-29 0 -64 21q-63 41 -63 149q0 68 -37 101q-14 13 -51 22h-4z" />
<glyph unicode="G" horiz-adv-x="573" d="M0 317v1170q0 199 119 278q59 39 119 39q57 0 116 -39q121 -80 121 -278v-25h-18q-29 0 -64 21q-63 48 -63 145v6q0 66 -37 99q-24 22 -51 22h-4h-5q-6 0 -10 -2q-19 -5 -33 -14q-45 -27 -45 -105v-1464q0 -68 37 -98q23 -23 51 -23h5h4q6 0 10 2q18 5 33 12 q45 31 45 107v731v25h16q43 0 72 -25t41 -61q16 -43 16 -84v-439q0 -198 -121 -278q-59 -39 -116 -39q-60 0 -119 39q-119 79 -119 278zM219 1194v25h19q146 0 208 -160q29 -78 29 -158h-37v6q0 9 -2 15q0 16 -10 43q-23 59 -80 59q-42 0 -70 25t-40 61q-17 46 -17 84z" />
<glyph unicode="H" horiz-adv-x="575" d="M0 0v1804h18q42 0 70.5 -25t42.5 -61q14 -43 14 -84v-438q49 23 93 23h4q1 0 4.5 1t5.5 1q19 5 33 14q45 31 45 106v293q0 41 14 84q14 36 42.5 61t70.5 25h18v-1804h-145v1194q-49 -25 -92 -25h-5q-6 0 -10 -2q-24 -6 -33 -12q-45 -31 -45 -106v-1049h-145z" />
<glyph unicode="I" horiz-adv-x="245" d="M0 4v23v1609q0 110 66 150q34 22 63 22h16v-24v-823v-934v-23h-145z" />
<glyph unicode="J" horiz-adv-x="575" d="M0 317v25h18q31 0 64 -23q63 -41 63 -149q0 -68 37 -98q23 -23 51 -23h5h4q6 0 10 2q18 5 33 12q45 31 45 107v1464q0 41 14 84q14 36 42.5 61t70.5 25h18v-1487q0 -198 -121 -278q-59 -39 -116 -39q-60 0 -119 39q-119 79 -119 278z" />
<glyph unicode="K" horiz-adv-x="573" d="M0 0v1804h18q42 0 70.5 -25t42.5 -61q14 -43 14 -84v-731q49 23 93 23h4q2 2 10 2q19 5 33 14q45 31 45 107v755h18q42 0 70.5 -25t42.5 -61q14 -43 14 -84v-440q0 -197 -119 -276q-17 -10 -26 -17q16 -8 26 -14q119 -79 119 -277v-610h-145v756q0 63 -37 100 q-24 21 -51 21l-4 2q-1 0 -5 -2h-10q-17 -4 -33 -15q-45 -31 -45 -106v-756h-145z" />
<glyph unicode="L" horiz-adv-x="538" d="M2 317v1487h18q42 0 70.5 -25t42.5 -61q14 -43 14 -84v-1464q0 -65 37 -98q23 -23 52 -23h4h4q6 0 10 2q18 5 33 12q45 31 45 107q0 108 63 149q33 23 64 23h18v-25q0 -107 -34 -175t-85 -103q-59 -39 -118 -39q-60 0 -119 39q-51 35 -85 103t-34 175z" />
<glyph unicode="M" horiz-adv-x="905" d="M0 0v1462v27v-2v293v24h18q60 0 91 -47q62 47 127 47h2h6q98 -10 157 -80q61 70 160 80h6q58 0 117 -39q121 -80 121 -278v-1487h-148v1634q0 69 -34 99q-24 22 -54 22h-2h-4q-6 0 -10 -2q-17 -3 -33 -14q-45 -27 -45 -105v-1634h-145v1634q0 66 -37 99q-22 22 -51 22h-4 h-5q-6 0 -10 -2q-19 -5 -33 -14q-42 -26 -45 -105v-1634h-145z" />
<glyph unicode="N" horiz-adv-x="575" d="M0 0v1462v27v291v24h18q60 0 91 -47q62 47 127 47h2q59 0 118 -39q119 -79 119 -278v-1487h-145v1634q0 66 -37 99q-22 22 -51 22h-4h-5q-6 0 -10 -2q-19 -5 -33 -14q-45 -27 -45 -105v-1634h-145z" />
<glyph unicode="O" horiz-adv-x="573" d="M0 317v1170q0 199 119 278q59 39 119 39q57 0 116 -39q121 -80 121 -278v-1170q0 -198 -121 -278q-59 -39 -116 -39q-60 0 -119 39q-119 79 -119 278zM145 170q0 -68 37 -98q23 -23 51 -23h5h4q6 0 10 2q18 5 33 12q45 31 45 107v1464q0 66 -37 99q-24 22 -51 22h-4h-5 q-6 0 -10 -2q-19 -5 -33 -14q-45 -27 -45 -105v-1464z" />
<glyph unicode="P" horiz-adv-x="559" d="M0 4v23v1757v24h18q28 0 64 -22q63 -41 63 -150v-1609v-23h-145zM238 588v49h4q1 0 4.5 1t5.5 1q19 5 33 14q45 31 45 107v876q0 68 -37 101q-14 13 -51 22h-4v25v24l7 -1q7 -1 18.5 -3t25.5 -6t32.5 -12t34.5 -19q119 -79 119 -276v-586q0 -199 -119 -278 q-59 -39 -118 -39z" />
<glyph unicode="Q" horiz-adv-x="573" d="M0 315v1172q0 197 119 276q59 39 117 39q59 0 118 -39q119 -79 119 -276v-1172q0 -199 -119 -278q-49 -29 -96 -37q0 -2 2 -2q8 -23 31 -23t39.5 -14t23.5 -35q11 -28 11 -47v-24h-19h-2q-41 0 -68.5 23.5t-39.5 58.5q-12 31 -17 63q-49 4 -100 37q-119 79 -119 278z M143 170q0 -67 37 -100q19 -15 51 -23h5h4q1 0 4.5 1t5.5 1q19 5 33 14q45 31 45 107v1462q0 64 -37 101q-23 20 -51 20h-4q0 1 -1.5 1t-3.5 -1h-10q-19 -5 -33 -14q-45 -31 -45 -107v-1462z" />
<glyph unicode="R" horiz-adv-x="571" d="M0 4v23v1757v24h18q28 0 64 -22q63 -41 63 -150v-1609v-23h-145zM238 588v24v25h4q1 0 4.5 1t5.5 1q19 5 33 14q45 31 45 107v876q0 68 -37 101q-14 13 -51 22h-4v25v24l7 -1q7 -1 18.5 -3t25.5 -6t32.5 -12t34.5 -19q119 -79 119 -276v-586q0 -199 -119 -278 q-6 -2 -14.5 -8t-11.5 -7q16 -8 26 -14q119 -79 119 -279v-315h-145v463q0 65 -37 98q-23 23 -51 23h-4z" />
<glyph unicode="S" horiz-adv-x="569" d="M0 317v25h18q31 0 64 -23q63 -41 63 -149q0 -68 37 -98q23 -23 51 -23h5h4q6 0 10 2q18 5 33 12q45 31 45 107v586q0 63 -37 100q-26 21 -51 21l-4 2q-60 0 -119 39q-119 79 -119 276v293q0 199 119 278q59 39 119 39q57 0 116 -39q121 -80 121 -278v-25h-18 q-29 0 -64 21q-63 48 -63 145v6q0 66 -37 99q-24 22 -51 22h-4h-5q-6 0 -10 -2q-19 -5 -33 -14q-45 -27 -45 -105v-585q0 -68 37 -101q14 -13 51 -22h5q57 0 116 -39q52 -34 86.5 -102.5t34.5 -174.5v-293q0 -198 -121 -278q-59 -39 -116 -39q-60 0 -119 39 q-119 79 -119 278z" />
<glyph unicode="T" horiz-adv-x="520" d="M0 1487q0 78 29 158q25 69 76.5 114t132.5 45h18v-24q0 -41 -16 -84q-12 -36 -41 -61t-72 -25q-52 0 -74 -49q-16 -29 -16 -70v-4h-37zM219 0v1487q0 38 17 84q12 37 40 62.5t70 25.5h4q49 0 72 47q16 36 16 70v4h37v-8q-10 -188 -110 -267v-1505h-146z" />
<glyph unicode="U" horiz-adv-x="575" d="M0 317v1487h18q31 0 64 -20q63 -41 63 -150v-1464q0 -65 37 -98q26 -23 51 -23h5v-49q-58 0 -117 39q-121 80 -121 278zM330 0v25v1609q0 109 63 150q33 20 64 20h18v-1804h-145z" />
<glyph unicode="V" horiz-adv-x="575" d="M0 317v1487h18q31 0 64 -20q63 -41 63 -150v-786v-678q0 -68 37 -98q23 -23 51 -23h5h4q6 0 10 2q18 5 33 12q43 30 45 107v1464v6q0 52 18 88q18 38 45 56q33 20 64 20h18v-1487q0 -198 -121 -278q-59 -39 -116 -39q-60 0 -119 39q-119 79 -119 278z" />
<glyph unicode="W" horiz-adv-x="905" d="M0 317v1487h18q31 0 64 -20q28 -18 46 -56q18 -37 17 -88v-6v-786v-678q0 -65 37 -98q26 -23 51 -23h5h2h2q6 0 10 2q18 5 33 12q43 30 45 107v1024v25h145v-1049q0 -68 37 -98q23 -23 51 -23h4h2q7 0 13 2q16 4 32 12q43 30 43 107q1 658 1 1024t-1 440q0 107 66 150 q33 20 63 20h19v-1487q0 -198 -121 -278q-26 -17 -55.5 -27t-45.5 -11l-16 -1h-6q-99 10 -160 80q-59 -70 -157 -80h-6q-60 0 -119 39q-51 35 -85 103t-34 175z" />
<glyph unicode="X" horiz-adv-x="575" d="M0 0v901q0 107 34.5 176t86.5 103q8 6 24 14q-8 4 -24 16q-51 32 -86 101.5t-35 175.5v317h18q31 0 64 -20q28 -18 46 -56q18 -37 17 -88v-6v-293q2 -69 37 -100q17 -13 51 -22h5h4q1 0 4.5 1t5.5 1q19 5 33 14q45 31 45 106v293q0 109 63 150q33 20 64 20h18v-317v-4v-4 q-3 -193 -119 -269l-12 -8t-14 -8q16 -8 26 -14q119 -79 119 -279v-901h-145v1049q0 63 -37 100q-23 20 -51 20h-4h-5q-6 0 -10 -2q-15 0 -33 -12q-45 -31 -45 -106v-1049h-145z" />
<glyph unicode="Y" horiz-adv-x="575" d="M0 317v25h18q31 0 64 -23q63 -41 63 -149q0 -68 37 -98q23 -23 51 -23h5h4q6 0 10 2q18 5 33 12q45 31 45 107v1464q0 109 63 150q33 20 64 20h18v-1487q0 -198 -121 -278q-59 -39 -116 -39q-60 0 -119 39q-119 79 -119 278zM0 901v903h18q31 0 64 -20q63 -41 63 -150 v-878q0 -68 37 -101q23 -20 51 -20h5v-25v-24q-60 0 -119 39q-119 79 -119 276z" />
<glyph unicode="Z" horiz-adv-x="540" d="M0 0v901q0 107 34.5 176t86.5 103q59 39 117 39h4q1 0 4.5 1t5.5 1q19 5 33 14q45 31 45 106q0 109 63 150q33 20 64 20h18v-24q0 -107 -34 -176t-85 -101q-62 -41 -118 -41h-5q-6 0 -10 -2q-24 -6 -33 -12q-45 -31 -45 -106v-1049h-16h-111h-18zM0 1780v24h18 q147 0 209 -159q29 -80 29 -158h-37v4q0 8 -2 14q0 18 -10 45q-19 60 -78 60q-43 0 -72 25t-41 61q-16 43 -16 84zM238 0v49h4q6 0 10 2q18 5 33 12q45 31 45 107q0 108 63 149q33 23 64 23h18v-25q0 -199 -119 -278q-59 -39 -118 -39z" />
<glyph unicode="[" horiz-adv-x="344" d="M0 0v1804h238h18v-194h-111v-1415h111v-195h-256z" />
<glyph unicode="\" horiz-adv-x="466" d="M0 1194v610h18q31 0 64 -20q63 -41 63 -150v-585q0 -64 37 -101q17 -13 51 -22h5v-25v-8q1 -1 4 -3t4 -3q52 -34 86.5 -102.5t34.5 -174.5v-610h-19q-32 0 -63 20q-66 40 -66 150v403v183q0 67 -37 100q-24 21 -51 21l-2 2h-2v22v10q-1 1 -3 3.5t-3 3.5q-121 80 -121 276 z" />
<glyph unicode="]" horiz-adv-x="356" d="M0 0v195h111v1415h-111v194h256v-1804h-238h-18z" />
<glyph unicode="^" horiz-adv-x="393" d="M0 1608l154 204l122 -163l31 -41h-106l-47 61l-48 -61h-106z" />
<glyph unicode="_" horiz-adv-x="475" d="M0 0h475v-170v-25h-475v195z" />
<glyph unicode="`" horiz-adv-x="329" d="M0 1786v24h16q33 0 64 -20q28 -17 46.5 -56t18.5 -96q0 -68 37 -98q22 -22 51 -22h5v-25v-25q-60 0 -119 39q-119 79 -119 279z" />
<glyph unicode="a" d="M0 317v146q0 199 119 278q59 39 119 39v-49h-5q-6 0 -10 -2q-19 -5 -33 -14q-45 -27 -45 -105v-440q0 -68 37 -98q23 -23 51 -23h5h4q6 0 10 2q18 5 33 12q45 31 45 107v879q0 63 -37 100q-25 20 -51 20h-4h-5q-6 0 -10 -2q-24 -6 -33 -12q-45 -31 -45 -106 q0 -109 -63 -150q-15 -9 -31 -14t-25 -5l-8 -1h-18v22q0 200 119 279q59 39 119 39q57 0 116 -39q52 -34 86.5 -103t34.5 -176v-584q0 -198 -121 -278q-59 -39 -116 -39q-60 0 -119 39q-119 79 -119 278z" />
<glyph unicode="b" horiz-adv-x="567" d="M0 317v1487h18q42 0 70.5 -25t42.5 -61q14 -43 14 -84v-1464q0 -68 37 -98q23 -23 51 -23h5h4q6 0 10 2q18 5 33 12q45 31 45 107v879q0 63 -37 100q-25 20 -51 20h-4v25v25q57 0 116 -39q52 -34 86.5 -103t34.5 -176v-584q0 -198 -121 -278q-59 -39 -116 -39 q-60 0 -119 39q-119 79 -119 278z" />
<glyph unicode="c" horiz-adv-x="542" d="M0 317v584q0 200 119 279q59 39 119 39q57 0 116 -39q52 -34 86.5 -103t34.5 -176v-22h-18q-31 0 -64 20q-27 17 -45 55q-18 37 -18 89v6q0 63 -37 100q-25 20 -51 20h-4h-5q-6 0 -10 -2q-24 -6 -33 -12q-45 -31 -45 -106v-879q0 -68 37 -98q23 -23 51 -23h5h4q6 0 10 2 q18 5 33 12q45 31 45 107q0 108 63 149q33 23 64 23h18v-25q0 -198 -121 -278q-59 -39 -116 -39q-60 0 -119 39q-119 79 -119 278z" />
<glyph unicode="d" horiz-adv-x="575" d="M0 317v584q0 200 119 279q59 39 119 39v-50h-5q-6 0 -10 -2q-24 -6 -33 -12q-45 -31 -45 -106v-879q0 -68 37 -98q23 -23 51 -23h5h4q6 0 10 2q18 5 33 12q45 31 45 107v1464q0 41 14 84q14 36 42.5 61t70.5 25h18v-1487q0 -198 -121 -278q-59 -39 -116 -39 q-60 0 -119 39q-119 79 -119 278z" />
<glyph unicode="e" horiz-adv-x="550" d="M0 317v584q0 202 117 279q59 39 119 39q57 0 116 -39q52 -34 86.5 -103t34.5 -176q0 -196 -121 -276q-59 -39 -116 -39v49h2h12q19 5 33 14q43 30 43 107v293q0 65 -35 100q-25 20 -53 20h-2h-5q-6 0 -10 -2q-21 -4 -33 -12q-45 -31 -45 -106v-879q0 -68 37 -98 q23 -23 51 -23h5h2q6 0 12 2q18 5 33 12q43 30 43 107q0 107 65 149q33 23 64 23h18v-25q0 -198 -121 -278q-59 -39 -116 -39q-60 0 -119 39q-117 77 -117 278z" />
<glyph unicode="f" horiz-adv-x="559" d="M0 0v1487q0 198 121 278q57 39 117 39q59 0 118 -39q119 -79 119 -278v-25h-18q-29 0 -64 21q-63 47 -63 151q0 66 -37 99q-22 22 -51 22h-4h-5q-6 0 -10 -2q-19 -5 -33 -14q-45 -27 -45 -105v-1634h-18h-109h-18zM219 1194v25h19q28 0 63 -21q66 -43 66 -149 q0 -67 34 -101q19 -15 54 -22h2v-47q-58 0 -117 39q-121 80 -121 276z" />
<glyph unicode="g" horiz-adv-x="567" d="M0 -238h18q31 -2 62 -22q28 -17 46.5 -55t18.5 -95q0 -68 37 -98q22 -22 51 -22h5h2q6 0 12 2q24 6 33 12q43 30 43 106v293q0 76 -41 105q-23 16 -49 16q-60 0 -119 39q-119 79 -119 276v586q0 200 119 279q59 39 119 39q57 0 116 -39q52 -34 86.5 -103t34.5 -176v-586 q0 -193 -115 -272q-15 -12 -30 -18q15 -9 30 -21q49 -32 82 -99t33 -171q0 -107 -34.5 -176t-86.5 -103q-59 -39 -116 -39q-60 0 -119 39q-119 79 -119 279v24zM145 174q0 -67 37 -100q24 -21 51 -21q3 -2 5 -2q22 0 49 19q41 29 41 104v877q0 69 -35 100q-29 23 -53 23h-2 h-5q-4 0 -10 -3q-17 -3 -33 -14q-45 -31 -45 -106v-877z" />
<glyph unicode="h" horiz-adv-x="573" d="M0 0v1780v24h18q42 0 70.5 -25t42.5 -61q14 -43 14 -84v-1634h-145zM238 1169v25v25q59 0 118 -39q119 -79 119 -279v-901h-145v1049q0 63 -37 100q-23 20 -51 20h-4z" />
<glyph unicode="i" horiz-adv-x="266" d="M0 0v25v1024q0 109 66 149q33 21 63 21h16v-25v-530v-639v-25h-145zM0 1196v2q0 39 16 84q13 36 42.5 60t70.5 24h16v-25q0 -24 -8 -47q-7 -21 -23.5 -36t-39.5 -15t-31 -20q-6 -10 -6 -29z" />
<glyph unicode="j" horiz-adv-x="587" d="M2 -238h18q31 0 64 -20q63 -41 63 -150q0 -67 37 -100q14 -13 52 -22h4h4q2 2 10 2q19 5 33 14q45 31 45 106v1461q0 41 14 84q14 37 42.5 61.5t70.5 24.5h18v-1485q0 -106 -34.5 -174.5t-84.5 -102.5q-16 -11 -34.5 -19t-32.5 -12t-25.5 -6t-18.5 -3l-7 -1l-7 1 q-7 1 -19 3t-26 6t-32.5 12t-34.5 19q-50 34 -84.5 102.5t-34.5 174.5v24zM332 1200q0 45 16 88q14 35 42 58.5t69 23.5h18v-24q0 -23 -8 -48q-7 -21 -24.5 -36t-41.5 -15q-20 0 -30 -20q-2 -5 -3.5 -11.5t-1.5 -10.5t1 -5h-37z" />
<glyph unicode="k" horiz-adv-x="571" d="M0 0v1804h18q42 0 70.5 -25t42.5 -61q14 -43 14 -84v-731q49 23 93 23h4q2 2 10 2q19 5 33 14q45 31 45 107q0 108 63 149q35 21 64 21h18v-25q0 -197 -119 -276q-17 -10 -26 -17q16 -8 26 -14q119 -79 119 -277v-610h-145v756q0 63 -37 100q-24 21 -51 21q-2 2 -4 2 q-1 0 -5 -2h-10q-17 -4 -33 -15q-45 -31 -45 -106v-756h-145z" />
<glyph unicode="l" horiz-adv-x="245" d="M0 0v1780v24h18q42 0 70.5 -25t42.5 -61q14 -43 14 -84v-1634h-145z" />
<glyph unicode="m" horiz-adv-x="913" d="M0 0v879v24v291v25h18q59 0 91 -48q64 48 127 48h2h6q98 -10 157 -80q61 70 160 80h6q58 0 117 -39q52 -34 86.5 -103t34.5 -176v-901h-148v1049q0 66 -34 100q-25 20 -54 20h-2h-4q-6 0 -10 -2q-15 0 -33 -12q-45 -31 -45 -106v-1049h-145v1049q0 63 -37 100 q-23 20 -51 20h-4h-5q-6 0 -10 -2q-15 0 -33 -12q-45 -31 -45 -106v-1049h-145z" />
<glyph unicode="n" horiz-adv-x="583" d="M0 0v879v24v291v25h18q59 0 91 -48q64 48 127 48h2v-25v-25h-5q-6 0 -10 -2q-15 0 -33 -12q-45 -31 -45 -106v-1049h-145zM238 1169v25v-25zM238 1169v25v25q59 0 118 -39q119 -79 119 -279v-901h-145v1049q0 63 -37 100q-23 20 -51 20h-4z" />
<glyph unicode="o" horiz-adv-x="579" d="M2 317v584q0 107 34.5 176t84.5 103q59 39 119 39q59 0 118 -39q50 -34 84.5 -103t34.5 -176v-584q0 -107 -34 -175t-85 -103q-59 -39 -118 -39q-60 0 -119 39q-51 35 -85 103t-34 175zM147 170q0 -65 37 -98q23 -23 52 -23h4h4q6 0 10 2q18 5 33 12q45 31 45 107v879 q0 63 -37 100q-23 20 -51 20h-4h-4q-7 0 -11 -2q-22 -6 -32 -12q-46 -32 -46 -106v-879z" />
<glyph unicode="p" horiz-adv-x="569" d="M0 -580v1487q0 106 34.5 174.5t86.5 102.5q59 39 117 39q59 0 118 -39q119 -79 119 -277v-585q0 -200 -119 -279q-59 -39 -118 -39v49h4q1 0 4.5 1t5.5 1q17 4 33 15q45 31 45 106v877q0 63 -37 100q-16 14 -51 23h-4h-5q-2 -2 -10 -2q-17 -4 -33 -15q-45 -31 -45 -106 v-877v-731v-25h-145z" />
<glyph unicode="q" horiz-adv-x="583" d="M0 317v584q0 200 119 279q59 39 119 39q57 0 116 -39q52 -34 86.5 -103t34.5 -176v-1485h-145v25v729v879q0 63 -37 100q-25 20 -51 20h-4h-5q-6 0 -10 -2q-24 -6 -33 -12q-45 -31 -45 -106v-879q0 -68 37 -98q23 -23 51 -23h5v-24v-25q-60 0 -119 39q-119 79 -119 278z " />
<glyph unicode="r" horiz-adv-x="520" d="M0 0v879v24v291v25h18q59 0 91 -48q64 48 127 48h2v-25v-25h-5q-6 0 -10 -2q-15 0 -33 -12q-45 -31 -45 -106v-1049h-145zM238 1169v25v-25zM238 1169v25v25q59 0 118 -39q119 -79 119 -279v-22h-18q-31 0 -64 20q-63 41 -63 150q0 63 -37 100q-23 20 -51 20h-4z" />
<glyph unicode="s" horiz-adv-x="559" d="M2 317v25h18q31 0 64 -23q63 -41 63 -149q0 -65 37 -98q23 -23 52 -23h4h4q6 0 10 2q18 5 33 12q45 31 45 107v293q0 67 -37 100q-16 14 -51 23h-4q-60 0 -119 39q-50 35 -84.5 102.5t-34.5 173.5q0 107 34.5 176t84.5 103q59 39 119 39q59 0 118 -39q50 -34 84.5 -103 t34.5 -176v-22h-18q-31 0 -64 20q-63 41 -63 150q0 63 -37 100q-23 20 -51 20h-4h-4q-7 0 -11 -2q-22 -6 -32 -12q-46 -32 -46 -106v-293q0 -64 37 -101q22 -20 52 -20h4l7 -1q7 -1 18.5 -3t25.5 -6t32.5 -12t34.5 -19q50 -34 84.5 -102.5t34.5 -174.5q0 -107 -34 -175 t-85 -103q-59 -39 -118 -39q-60 0 -119 39q-51 35 -85 103t-34 175z" />
<glyph unicode="t" horiz-adv-x="536" d="M2 317v1487h18q42 0 70.5 -25t42.5 -61q14 -43 14 -84v-1464q0 -65 37 -98q23 -23 52 -23h4h4q6 0 10 2q18 5 33 12q45 31 45 107q0 108 63 149q33 23 64 23h18v-25q0 -107 -34 -175t-85 -103q-59 -39 -118 -39q-60 0 -119 39q-51 35 -85 103t-34 175zM221 1341h19h18v-4 q0 -10 2 -14q0 -18 10 -45q23 -59 80 -59q42 0 70.5 -25t40.5 -61q16 -43 16 -84v-25h-18h-2q-143 0 -207 160q-29 80 -29 157z" />
<glyph unicode="u" horiz-adv-x="595" d="M0 317v902h18q29 0 64 -21q63 -41 63 -149v-879q0 -65 37 -98q26 -23 51 -23h5v-49q-58 0 -117 39q-121 80 -121 278zM330 0v25v1024q0 108 63 149q35 21 64 21h18v-1219h-145z" />
<glyph unicode="v" horiz-adv-x="575" d="M0 317v902h16q31 -1 62 -21q65 -39 65 -149v-879q0 -68 37 -98q23 -23 51 -23h5h2q6 0 12 2q18 5 33 12q43 30 43 107v879q0 107 65 149q35 21 64 21h18v-902q0 -198 -121 -278q-26 -17 -55 -27t-45 -11l-16 -1q-60 0 -119 39q-117 77 -117 278z" />
<glyph unicode="w" horiz-adv-x="905" d="M0 322v901h16q29 0 64 -21q63 -41 63 -149v-879q0 -63 37 -100q26 -21 51 -21h5h4q6 0 10 2q14 0 33 13q43 30 45 106v1024v25h145v-1049q0 -67 37 -100q24 -21 51 -21h4h2q9 0 13 2q12 0 32 13q43 30 43 106v879q0 106 66 149q35 21 63 21h19v-901q0 -107 -34.5 -176 t-86.5 -103q-59 -39 -117 -39h-6q-99 10 -160 80q-61 -70 -157 -80h-6q-58 0 -117 39q-119 79 -119 279z" />
<glyph unicode="x" horiz-adv-x="571" d="M0 0v317q0 106 35 175.5t86 101.5q16 12 24 16q-12 6 -24 15q-121 80 -121 276v318h18q29 0 64 -21q63 -41 63 -149v-293q0 -64 37 -101q25 -20 51 -20h5h4h10q19 5 33 14q45 31 45 107v2v291q0 108 63 149q35 21 64 21h18v-318v-4v-2v-2q-3 -192 -119 -268 q-20 -12 -26 -15q5 -2 14 -8l12 -8q51 -32 85 -101t34 -176v-317h-145v463q0 67 -37 100q-16 14 -51 23h-4h-5q-2 -2 -10 -2q-17 -4 -33 -15q-45 -31 -45 -106v-463h-145z" />
<glyph unicode="y" horiz-adv-x="587" d="M2 -240h18q32 0 64 -22q63 -41 63 -150q0 -65 37 -98q22 -22 52 -22h4h4q6 0 10 2q18 4 33 12q45 31 45 106v1463q0 108 63 149q35 21 64 21h18v-1485q0 -107 -34.5 -176t-84.5 -103q-59 -39 -118 -39q-60 0 -119 39q-50 34 -84.5 103t-34.5 176v24zM2 317v904h18 q29 0 64 -21q63 -41 63 -149v-879q0 -63 37 -100q24 -21 52 -21h4v-24v-25q-60 0 -119 39q-50 35 -84.5 102.5t-34.5 173.5z" />
<glyph unicode="z" horiz-adv-x="550" d="M0 0v317q0 106 34.5 174.5t86.5 102.5q16 11 34 19t32 12t25.5 6t18.5 3l7 1h4h10q19 5 33 14q45 31 45 107q0 108 63 149q35 21 64 21h18v-25q0 -197 -119 -276q-59 -39 -118 -39h-5q-2 -2 -10 -2q-17 -4 -33 -15q-45 -31 -45 -106v-463h-16h-111h-18zM0 1194v25h18 q147 0 209 -160q29 -78 29 -158h-37v6q0 9 -2 15q0 16 -10 43q-19 59 -78 59q-42 0 -71.5 25.5t-41.5 60.5q-16 43 -16 84zM238 0v49h4q6 0 10 2q18 5 33 12q45 31 45 107q0 108 63 149q33 23 64 23h18v-25q0 -199 -119 -278q-59 -39 -118 -39z" />
<glyph unicode="{" horiz-adv-x="407" d="M0 879v6v-6v26v21q6 0 16 2q19 5 33 14q43 30 43 107v438q0 198 121 278q59 39 117 39v-49h-4q-7 0 -11 -2q-18 -4 -32 -14q-45 -27 -45 -105v-440q0 -105 -33 -173t-84 -101q-5 -5 -15 -11.5t-12 -7.5q22 -11 27 -16q49 -32 82.5 -98t34.5 -166v-7v-4v-24v-416 q0 -66 36 -98q26 -23 52 -23h4v-49q-58 0 -117 39q-121 80 -121 278v439q0 59 -26 92q-18 18 -50 29z" />
<glyph unicode="|" horiz-adv-x="245" d="M0 -586v2388h145v-2363v-25h-145z" />
<glyph unicode="}" horiz-adv-x="403" d="M0 4v23v24h4q2 2 10 2q17 4 33 15q45 31 45 106v438q0 107 33 175.5t84 101.5q22 13 29 16q-2 1 -29 17q-114 78 -117 266v6v4v438q0 68 -37 101q-14 13 -51 22h-4v25v24l7 -1q7 -1 19 -3t26 -6t32.5 -12t34.5 -19q50 -35 84.5 -102.5t34.5 -173.5v-440q0 -62 28 -90 q19 -24 47 -29l17 -2v-8v8v-29v-20q-7 0 -17 -2q-16 -4 -30 -15q-45 -29 -45 -104v-441q0 -106 -34.5 -173.5t-84.5 -102.5q-59 -39 -119 -39z" />
<glyph unicode="~" horiz-adv-x="565" d="M0 612l8 15l4 5q3 6 9 14t14 16.5t20 14t25 5.5q37 3 67 -55q18 -35 37 -35q9 -1 21 9t18 20q1 2 2.5 3.5t1.5 2.5l31 -29l-4 -6q-3 -6 -9 -14.5t-14 -19.5t-19 -21.5t-23.5 -19.5t-28 -15t-31.5 -6h-2q-64 0 -119 102zM227 627v2l5 7q4 8 8 13.5t12 15.5t15 18 t17.5 16.5t21 14.5t24 10.5t26.5 4.5q66 0 121 -102l6 -15l-6 -14l-3 -6q-4 -5 -10 -13t-14 -16t-19.5 -13.5t-24.5 -6.5h-3q-38 0 -65 55q-17 33 -39 37q-11 0 -25 -14t-16 -21v-2z" />
<glyph unicode="&#xa1;" horiz-adv-x="239" d="M0 469q0 57 18.5 96t44.5 56q33 20 64 20h18v-25v-530v-639v-22h-145v22v1022zM0 618q0 42 16 87q13 35 41.5 58t69.5 23h18v-24q0 -22 -8 -47q-16 -49 -65 -49q-18 0 -31 -21q-8 -25 -4 -29z" />
<glyph unicode="&#xa2;" horiz-adv-x="552" d="M0 311v586q0 107 34.5 176t86.5 103q57 38 117 38v-16v16q18 0 43 -6l20 152h74l-25 -182q53 -32 89 -101.5t36 -179.5v-25h-18q-29 0 -64 21q-58 36 -63 129l-129 -969q19 -8 32 -8l5 -2q2 0 4 2h10q19 5 33 14q45 31 45 107q0 108 63 149q35 21 64 21h18v-25 q0 -197 -119 -276q-59 -37 -118 -37v14v-14q-18 0 -43 4l-21 -152h-74l25 181q-53 32 -89 101t-36 179zM145 193l129 962q-18 10 -32 10h-4h-5q-6 0 -10 -2q-19 -5 -33 -14q-45 -31 -45 -107v-849z" />
<glyph unicode="&#xa3;" horiz-adv-x="671" d="M0 561v96h111v244q0 201 118 279q59 39 119 39q58 0 117 -39q52 -34 86.5 -103t34.5 -176v-22h-19q-30 0 -63 20q-66 43 -66 150q0 65 -35 100q-25 20 -53 20h-2h-4q-6 0 -10 -2q-18 0 -33 -12q-45 -31 -45 -106v-392h201h18v-96h-219v-244q0 -107 -34 -175t-85 -103 q-59 -39 -119 -39v49h5q6 0 10 2q18 5 33 12q45 31 45 107v391h-111zM348 293v24v25q58 0 117 -39q121 -80 121 -278v-25h-19q-30 0 -63 20q-66 43 -66 150q0 69 -35 100q-21 17 -53 23h-2z" />
<glyph unicode="&#xa4;" horiz-adv-x="567" d="M0 606q0 200 119 279q21 12 41 22q-51 43 -51 140v24h18q15 0 37 -12q37 -28 37 -86q0 -31 14 -41q13 -8 23 -8q12 2 20 8q16 12 16 41q0 61 37 86q8 4 16.5 7t13.5 4l5 1h19v-24q0 -96 -52 -140q10 -4 41 -22q52 -34 86.5 -103t34.5 -176q0 -196 -121 -276 q-19 -14 -41 -23q52 -48 52 -139v-25h-19q-17 1 -35 13q-15 8 -26 31t-11 55q0 25 -16 41l-20 8q-10 0 -23 -8q-14 -14 -14 -41q0 -31 -11.5 -54t-25.5 -32q-20 -13 -37 -13h-18v25q0 92 51 139q-29 15 -41 23q-119 79 -119 276zM145 461q0 -68 37 -101q23 -20 51 -20l3 -2 h2l2 2h12q20 5 31 14q45 29 45 107v293q0 67 -35 98q-24 22 -53 22h-2h-5q-6 0 -10 -2q-24 -5 -33 -12q-45 -31 -45 -106v-293z" />
<glyph unicode="&#xa6;" horiz-adv-x="243" d="M0 489h147v-1071h-129h-18v1071zM0 733v1047v24h147v-1071h-147z" />
<glyph unicode="&#xa7;" d="M2 -242h18q31 0 64 -20q63 -41 63 -150q0 -67 37 -100q16 -14 52 -23h4h4q1 0 4.5 1.5t5.5 1.5q19 5 33 14q45 31 45 106v291q0 76 -45 107q-20 14 -47 14q-60 0 -119 39q-51 35 -85 103t-34 175v584q0 200 119 279q10 6 26 14q-5 2 -14 8l-12 8q-51 32 -85 101t-34 176 t34 175t85 103q59 39 119 39q59 0 118 -39q51 -35 85 -103t34 -175v-25h-18q-29 0 -64 21q-63 47 -63 151q0 66 -37 99q-22 22 -51 22h-4h-4q-7 0 -11 -2q-18 -4 -32 -14q-46 -28 -46 -105v-293q0 -67 37 -100q14 -13 52 -22h4q59 0 118 -39q50 -34 84.5 -103t34.5 -176 v-584q0 -195 -115 -274q-15 -12 -30 -18q25 -15 30 -19q46 -29 78.5 -91.5t36.5 -156.5v-20v-4v-4v-6q-3 -189 -119 -269q-59 -39 -118 -39q-60 0 -119 39q-50 34 -84.5 103t-34.5 176v24zM147 170q0 -65 37 -98q23 -23 52 -23h4q25 0 47 17q45 31 45 104v879q0 63 -37 100 q-23 20 -51 20h-4h-4q-7 0 -11 -2q-14 0 -32 -12q-46 -32 -46 -106v-879z" />
<glyph unicode="&#xa8;" horiz-adv-x="593" d="M0 1704q0 41 21.5 69.5t50.5 28.5q31 0 52 -28.5t21 -69.5q0 -40 -21 -68t-52 -28q-29 0 -50.5 28t-21.5 68zM328 1704q0 41 21 69.5t52 28.5t52.5 -28.5t21.5 -69.5q0 -40 -21.5 -68t-52.5 -28t-52 28t-21 68z" />
<glyph unicode="&#xa9;" horiz-adv-x="1009" d="M0 610q0 204 63.5 333.5t161.5 195.5q50 34 107.5 54t83 23t41.5 3v-50q-57 0 -105 -36q-96 -69 -96 -232v-584q0 -162 96 -231q50 -37 105 -37v-49q-16 0 -41.5 3t-83 23t-107.5 54q-98 66 -161.5 195.5t-63.5 334.5zM330 463v293q0 108 61 147q36 23 66 23v-47 q-13 -3 -21 -9q-14 -14 -14 -41v-440q0 -27 14 -41q4 -3 9 -4.5t9 -1.5h3v-49q-32 0 -66 22q-26 17 -43.5 55t-17.5 93zM457 342q14 0 22 6q15 15 15 41q0 65 38 86q18 12 35 12h19v-24q0 -55 -18 -93t-44 -55q-34 -22 -65 -22zM457 879l2 47q29 0 65 -23q62 -40 62 -147 v-25h-19q-17 0 -35 12q-15 8 -26.5 31.5t-11.5 54.5q0 26 -15 41q-12 9 -22 9zM459 0v49q54 0 104 37q96 69 96 231v584q0 163 -96 232q-48 36 -104 36v50q16 0 41 -3t82.5 -23t107.5 -54q98 -66 161.5 -195.5t63.5 -333.5q0 -205 -63.5 -334.5t-161.5 -195.5 q-50 -34 -107.5 -54t-82.5 -23t-41 -3z" />
<glyph unicode="&#xaa;" horiz-adv-x="352" d="M0 1341v72q0 57 19 96t47 56q31 20 63 20v-49h-2h-4q-2 -1 -7 -3t-7 -3q-17 -17 -17 -43v-219q0 -27 12 -39q10 -10 23 -10h2q2 0 4 2q6 0 14 4q17 17 17 43v438q0 25 -12 41q-11 8 -23 8h-2h-4q-1 0 -6.5 -2t-7.5 -4q-17 -13 -17 -43q0 -60 -39 -86q-18 -10 -35 -10h-18 v24q0 110 66 150q31 20 63 20q30 0 61 -20q66 -40 66 -150v-293q0 -109 -66 -149q-14 -9 -29 -14.5t-23 -7.5l-9 -1q-27 0 -63 23q-66 40 -66 149z" />
<glyph unicode="&#xab;" horiz-adv-x="581" d="M0 651l264 350v-204v-11l-102 -135l102 -137v-215zM219 651l234 310l30 40v-215l-102 -135l102 -137v-215z" />
<glyph unicode="&#xac;" horiz-adv-x="575" d="M0 731v25h238v-25v25q81 0 132 -45.5t76 -114.5q29 -78 29 -158h-37v6v13q-2 15 -10 45q-23 59 -80 59h-2h2h-6h4h-217q-43 0 -72 25t-41 61q-16 43 -16 84zM332 571q2 0 2 -2zM332 571q2 0 2 -2zM342 561h6h-2h-4zM346 561z" />
<glyph unicode="&#xad;" horiz-adv-x="575" d="M0 502v24v117v25h475v-25v-117v-24h-475z" />
<glyph unicode="&#xae;" horiz-adv-x="1009" d="M0 610q0 204 63.5 333.5t161.5 197.5q50 33 107.5 52.5t83 22.5t41.5 3v-50q-57 0 -105 -36q-96 -69 -96 -232v-584q0 -162 96 -231q50 -37 105 -37v-49q-15 0 -40.5 3t-83.5 23t-108 54q-98 66 -161.5 195.5t-63.5 334.5zM330 293v608v25h18q26 0 47 -21q31 21 60 21h2 v-25v-22l2 47q29 0 65 -23q62 -40 62 -147v-25h-19q-17 0 -35 12q-15 8 -26.5 31.5t-11.5 54.5q0 26 -15 41q-12 9 -22 9q-2 -2 -4 -2q-8 0 -15 -7q-16 -10 -16 -41v-536h-92zM459 0v49q54 0 104 37q96 69 96 231v584q0 163 -96 232q-48 36 -104 36v50q16 0 41 -3 t82.5 -22.5t107.5 -52.5q98 -68 161.5 -197.5t63.5 -333.5q0 -205 -63.5 -334.5t-161.5 -195.5q-50 -34 -107.5 -54t-83 -23t-40.5 -3z" />
<glyph unicode="&#xaf;" horiz-adv-x="604" d="M0 1614v24v117v25h475v-25v-117v-24h-475z" />
<glyph unicode="&#xb0;" horiz-adv-x="350" d="M0 1634q0 103 61 148q34 22 66 22v-49q-13 0 -21 -8q-14 -11 -14 -41v-145q0 -31 14 -41l21 -9v-49q-30 0 -66 23q-61 45 -61 149zM129 1462v49q13 3 21 9q14 10 14 41v145q0 30 -14 41q-4 4 -9 6t-9 2h-3v49q32 0 66 -22q61 -45 61 -148q0 -104 -61 -149 q-36 -23 -66 -23z" />
<glyph unicode="&#xb1;" horiz-adv-x="569" d="M0 123v22v119v23h176v215h-176v24v117v25h176v233h19h88h16v-233h176v-25v-117v-24h-176v-215h176v-23v-119v-22h-457h-18z" />
<glyph unicode="&#xb2;" horiz-adv-x="352" d="M0 1331v6v4v5v20q8 89 66 125q31 20 63 20h4l14 7q17 17 17 43v145q0 25 -12 41q-11 8 -23 8h-2h-4q-1 0 -6.5 -2t-7.5 -4q-17 -13 -17 -43q0 -60 -39 -86q-18 -10 -35 -10h-18v24q0 110 66 150q31 20 63 20q30 0 61 -20q66 -40 66 -150q0 -105 -66 -151q-14 -9 -29 -14 t-23 -6l-9 -1h-2h-4q-1 0 -6.5 -2t-7.5 -4q-17 -13 -17 -43v-145q0 -27 12 -39q10 -10 23 -10h2q2 0 4 2q6 0 14 4q17 17 17 43q0 60 39 86q18 12 35 12h18v-25q0 -109 -66 -149q-14 -9 -29 -14.5t-23 -7.5l-9 -1q-27 0 -63 23q-63 37 -66 139z" />
<glyph unicode="&#xb3;" horiz-adv-x="352" d="M0 1341v25h18q17 0 35 -12q39 -26 39 -86q0 -27 12 -39q10 -10 23 -10h2q2 0 4 2q6 0 14 4q17 17 17 43v145q0 25 -12 41q-11 8 -23 8v25v24h4l14 7q17 17 17 43v145q0 25 -12 41q-11 8 -23 8h-2h-4q-1 0 -6.5 -2t-7.5 -4q-17 -13 -17 -43q0 -60 -39 -86q-18 -10 -35 -10 h-18v24q0 110 66 150q31 20 63 20q30 0 61 -20q66 -40 66 -150q0 -103 -59 -147q50 -34 59 -121v-20v-5v-4v-6q-3 -102 -66 -139q-14 -9 -29 -14.5t-23 -7.5l-9 -1q-27 0 -63 23q-66 40 -66 149z" />
<glyph unicode="&#xb4;" horiz-adv-x="241" d="M0 1462v172q0 41 16 84q12 35 41.5 60.5t71.5 25.5h16v-170q0 -43 -14 -84q-14 -37 -42 -62.5t-69 -25.5h-2h-18z" />
<glyph unicode="&#xb5;" horiz-adv-x="585" d="M0 319v904h18q29 0 64 -21q63 -41 63 -151v-877q0 -63 37 -100q19 -15 51 -23h5v-24v-23q-58 0 -117 39q-121 80 -121 276zM330 27v1024q0 110 63 151q35 21 64 21h18v-1803h-145v607z" />
<glyph unicode="&#xb6;" horiz-adv-x="575" d="M0 901v586q0 198 121 278q59 39 117 39q59 0 118 -39q119 -79 119 -278v-1487h-145v25v419v312v878q0 66 -37 99q-22 22 -51 22h-4h-5q-6 0 -10 -2q-19 -5 -33 -14q-45 -27 -45 -105v-878q0 -64 37 -101q25 -20 51 -20h5h18v-635h-145v610v21q-111 80 -111 270z" />
<glyph unicode="&#xb9;" horiz-adv-x="192" d="M0 1169v25v512q0 31 11.5 54t25.5 32q18 12 37 12h18v-24q-2 -438 0 -512q0 -60 -39 -86q-23 -13 -35 -13h-18z" />
<glyph unicode="&#xba;" horiz-adv-x="352" d="M0 1341v293q0 110 66 150q31 20 63 20q30 0 61 -20q66 -40 66 -150v-293q0 -109 -66 -149q-14 -9 -29 -14.5t-23 -7.5l-9 -1q-27 0 -63 23q-66 40 -66 149zM92 1268q0 -27 12 -39q10 -10 23 -10h2q2 0 4 2q6 0 14 4q17 17 17 43v202q-8 -4 -17 -6t-13 -2h-5h-2h-4 q-1 0 -6.5 -2t-7.5 -4q-17 -13 -17 -43v-145zM92 1503q20 8 37 8q2 0 4 2q4 0 14 5q17 17 17 43v145q0 25 -12 41q-11 8 -23 8h-2h-4q-1 0 -6.5 -2t-7.5 -4q-17 -13 -17 -43v-203z" />
<glyph unicode="&#xbb;" horiz-adv-x="571" d="M0 293v215l102 135l-102 137v156v59l264 -352zM219 293v215l103 135l-103 137v156v59l264 -352z" />
<glyph unicode="&#xbf;" horiz-adv-x="487" d="M0 25q0 199 119 278l8 4v35h4q6 0 10 2q21 4 33 14q45 25 45 105v293q0 109 66 149q31 23 63 23h19v-318q0 -198 -121 -278q-1 -1 -4 -2t-4 -2v-35h-5q-6 0 -10 -2q-17 -4 -33 -15q-45 -27 -45 -104v-584q0 -63 37 -100q19 -15 51 -23h5h4q3 3 10 3q19 5 33 14 q45 31 45 106q0 109 63 150q33 20 64 20h18v-24q0 -198 -119 -277q-59 -39 -118 -39q-60 0 -119 39q-50 34 -84.5 102.5t-34.5 174.5v291zM219 1122q0 40 21.5 69.5t52.5 29.5t52.5 -29.5t21.5 -69.5t-21.5 -69t-52.5 -29t-52.5 29t-21.5 69z" />
<glyph unicode="&#xc0;" horiz-adv-x="573" d="M0 317v584q0 200 119 279q26 17 55.5 27t45.5 11l16 1v-25v-25h-3q-6 0 -12 -2q-19 -5 -31 -12q-45 -29 -45 -106v-879q0 -65 35 -100q26 -21 53 -21h3h4q6 0 10 2q24 5 33 12q45 31 45 107v1462q0 71 -37 101q-25 22 -51 22h-4h-3q-2 0 -5.5 -1t-6.5 -1q-20 -5 -31 -14 q-45 -29 -45 -107q0 -110 -65 -149q-35 -21 -64 -21h-16v25q0 199 119 278q26 17 55.5 27t45.5 11l16 1q59 0 118 -39q119 -79 119 -278v-1170q0 -199 -119 -278q-59 -39 -118 -39q-58 0 -117 39q-119 79 -119 278zM109 2218v25h18q28 0 63 -21q64 -41 64 -149 q0 -68 37 -101q14 -13 51 -22h4v-25v-24q-62 0 -119 38q-118 78 -118 279z" />
<glyph unicode="&#xc1;" d="M2 319v586q0 106 34.5 174.5t86.5 102.5q16 11 34.5 19t32.5 12t26 6t19 3l7 1v-49h-4q-3 -3 -11 -3q-19 -4 -32 -14q-45 -29 -45 -106v-877q0 -71 36 -100q16 -14 52 -23h2h2h2q1 0 4.5 1t5.5 1q19 4 33 15q45 29 45 106v1462q0 68 -37 101q-23 20 -51 20h-2h-4 q-7 0 -11 -2q-23 -5 -32 -12q-45 -29 -45 -107q0 -109 -66 -149q-33 -21 -64 -21h-18v23q0 198 121 278q59 39 119 39q57 0 116 -39q121 -80 121 -278v-1170q0 -198 -121 -278q-26 -17 -55 -27t-45 -11l-16 -1q-60 0 -119 39q-121 80 -121 278zM113 1929q0 81 28 156 q63 162 209 162h19v-25q0 -40 -17 -84q-12 -36 -40.5 -62t-69.5 -26q-53 0 -76 -47q-16 -36 -16 -70v-4h-37z" />
<glyph unicode="&#xc2;" d="M2 317v584q0 107 34.5 176t84.5 103q59 39 119 39v-50h-4q-7 0 -11 -2q-22 -6 -32 -12q-46 -32 -46 -106v-879q0 -65 37 -98q23 -23 52 -23h4h4q6 0 10 2q18 5 33 12q45 31 45 107v1464q0 66 -37 99q-22 22 -51 22h-4h-4q-7 0 -11 -2q-18 -4 -32 -14q-46 -28 -46 -105 q0 -110 -63 -151q-35 -21 -64 -21h-18v25q0 107 34 175t85 103q59 39 119 39q59 0 118 -39q51 -35 85 -103t34 -175v-1170q0 -107 -34 -175t-85 -103q-59 -39 -118 -39q-60 0 -119 39q-51 35 -85 103t-34 175zM86 1903l154 204l153 -204h-106l-47 61l-47 -61h-107z" />
<glyph unicode="&#xc3;" d="M2 317v584q0 107 34.5 176t84.5 103q59 39 119 39v-50h-4q-7 0 -11 -2q-22 -6 -32 -12q-46 -32 -46 -106v-879q2 -67 37 -98q23 -23 52 -23h4h4q6 0 10 2q18 5 33 12q45 31 45 107v1464q0 66 -37 99q-22 22 -51 22h-4h-4q-7 0 -11 -2q-18 -4 -32 -14q-46 -28 -46 -105 q0 -110 -63 -151q-35 -21 -64 -21h-18v25q0 107 34 175t85 103q59 39 119 39q59 0 118 -39q51 -35 85 -103t34 -175v-1170q0 -107 -34 -175t-85 -103q-59 -39 -118 -39q-60 0 -119 39q-51 35 -85 103t-34 175zM111 1999l2 10q4 11 10 23q15 26 35 28q13 0 26 -16 q11 -15 17 -35q4 -10 8 -18q2 -2 2 -4q4 4 6 8q1 1 3 7t3 7l33 -20q0 -7 -18 -43q-29 -43 -56 -43q-21 0 -37 22q-17 19 -32 64zM223 2009q1 1 3.5 8t7 16.5t8.5 18.5q9 13 14 20t17 15t24 8q19 3 37 -22q18 -21 33 -64l2 -10l-2 -10q-5 -13 -11 -23q-16 -27 -34 -29 q-12 0 -27 15q-10 17 -16 37l-9 18l-2 2q-3 0 -6 -6q-1 -2 -2.5 -5.5t-2.5 -5.5t-1 -3z" />
<glyph unicode="&#xc4;" d="M2 317v584q0 107 34.5 176t84.5 103q59 39 119 39v-50h-4q-7 0 -11 -2q-22 -6 -32 -12q-46 -32 -46 -106v-879q0 -65 37 -98q23 -23 52 -23h4h4q6 0 10 2q18 5 33 12q45 31 45 107v1464q0 66 -37 99q-22 22 -51 22h-4h-4q-7 0 -11 -2q-18 -4 -32 -14q-46 -28 -46 -105 q0 -110 -63 -151q-35 -21 -64 -21h-18v25q0 107 34 175t85 103q59 39 119 39q59 0 118 -39q51 -35 85 -103t34 -175v-1170q0 -107 -34 -175t-85 -103q-59 -39 -118 -39q-60 0 -119 39q-51 35 -85 103t-34 175zM2 1999q0 40 21.5 69t52.5 29q29 0 50 -29t21 -69t-21 -68 t-50 -28q-31 0 -52.5 28t-21.5 68zM332 1999q0 40 21 69t50 29q31 0 52.5 -29t21.5 -69t-21.5 -68t-52.5 -28q-29 0 -50 28t-21 68z" />
<glyph unicode="&#xc5;" d="M2 317v584q0 107 34.5 176t84.5 103q59 39 119 39v-25v-25h-4q-7 0 -11 -2q-22 -6 -32 -12q-46 -32 -46 -106v-879q0 -65 37 -98q23 -23 52 -23h4h4q6 0 10 2q18 5 33 12q45 31 45 107v1464q0 66 -37 99q-22 22 -51 22h-4h-4q-7 0 -11 -2q-18 -4 -32 -14 q-46 -28 -46 -105q0 -110 -63 -151q-35 -21 -64 -21h-18v25q0 107 34 175t85 103q59 39 119 39q59 0 118 -39q51 -35 85 -103t34 -175v-1170q0 -107 -34 -175t-85 -103q-59 -39 -118 -39q-60 0 -119 39q-51 35 -85 103t-34 175zM113 2073q0 108 61 147q31 23 66 23v-50 q-13 0 -21 -6q-16 -16 -16 -41v-147q0 -25 16 -41q8 -8 21 -8v-47h-2q-32 0 -64 22q-61 39 -61 148zM240 1903v47q12 0 20 8q16 16 16 41v147q0 25 -16 41q-8 6 -20 6v50q34 0 65 -23q62 -40 62 -147q0 -108 -62 -148q-32 -22 -63 -22h-2z" />
<glyph unicode="&#xc6;" horiz-adv-x="892" d="M2 317v584q0 107 34.5 176t84.5 103q59 39 119 39v-50h-4q-7 0 -11 -2q-22 -6 -32 -12q-46 -32 -46 -106v-879q0 -65 37 -98q23 -23 52 -23h4h4q6 0 10 2q18 5 33 12q45 31 45 107v1464q0 66 -37 99q-22 22 -51 22h-4h-4q-7 0 -11 -2q-18 -4 -32 -14q-46 -28 -46 -105 q0 -110 -63 -151q-35 -21 -64 -21h-18v25q0 107 34 175t85 103q59 39 119 39h6q96 -10 157 -80q61 70 160 80h6q58 0 117 -39q121 -80 121 -278v-586q0 -196 -121 -276q-26 -17 -55.5 -27t-45.5 -11l-16 -1v24v25h2h13q18 5 30 14q45 29 45 107v878q0 69 -34 99 q-24 22 -54 22h-2h-4q-6 0 -10 -2q-21 -4 -33 -14q-45 -27 -45 -105v-1464q0 -68 37 -98q23 -23 51 -23h4h2q7 0 13 2q16 4 30 15q45 25 45 104q0 106 66 149q33 23 63 23h19v-25q0 -198 -121 -278q-26 -17 -55.5 -27t-45.5 -11l-16 -1h-6q-99 10 -160 80q-61 -70 -157 -80 h-6q-60 0 -119 39q-51 35 -85 103t-34 175z" />
<glyph unicode="&#xc7;" horiz-adv-x="563" d="M2 317v1170q0 107 34 175t85 103q59 39 119 39q59 0 118 -39q51 -35 85 -103t34 -175v-25h-18q-29 0 -64 21q-63 47 -63 151q0 66 -37 99q-22 22 -51 22h-4h-4q-7 0 -11 -2q-18 -4 -32 -14q-46 -28 -46 -105v-1464q2 -67 37 -98q23 -23 52 -23h4h4q6 0 10 2q18 5 33 12 q45 31 45 107q0 108 63 149q33 23 64 23h18v-25q0 -199 -119 -278q-35 -20 -41 -23q49 -36 52 -137q0 -100 -64 -147q-36 -23 -65 -23v49q8 0 20 9q16 12 16 40v146q0 29 -16 41q-8 6 -20 6q-60 0 -119 39q-51 35 -85 103t-34 175zM113 -96h16q19 0 37 -10q37 -25 37 -87 q0 -28 16 -40q12 -9 21 -9v-49q-30 0 -66 23q-61 45 -61 147v25z" />
<glyph unicode="&#xc8;" horiz-adv-x="563" d="M2 317v1170q0 107 34 175t85 103q59 39 119 39q59 0 118 -39q51 -35 85 -103t34 -175v-586q0 -106 -34.5 -173.5t-84.5 -102.5q-59 -39 -118 -39v24v25h4h10q19 5 33 14q45 31 45 107v878q0 66 -37 99q-22 22 -51 22h-4h-4q-7 0 -11 -2q-18 -4 -32 -14q-46 -28 -46 -105 v-1464q0 -65 37 -98q23 -23 52 -23h4h4q6 0 10 2q18 5 33 12q45 31 45 107q0 108 63 149q33 23 64 23h18v-25q0 -107 -34 -175t-85 -103q-59 -39 -118 -39q-60 0 -119 39q-51 35 -85 103t-34 175zM113 2218v25h16q31 0 64 -21q65 -39 65 -149q0 -68 37 -101q14 -13 51 -22h4 v-25v-22q-60 0 -119 39q-118 78 -118 276z" />
<glyph unicode="&#xc9;" horiz-adv-x="563" d="M2 317v1170q0 107 34 175t85 103q59 39 119 39q59 0 118 -39q51 -35 85 -103t34 -175v-586q0 -106 -34.5 -173.5t-84.5 -102.5q-59 -39 -118 -39v24v25h4h10q19 5 33 14q45 31 45 107v878q0 66 -37 99q-22 22 -51 22h-4h-4q-7 0 -11 -2q-18 -4 -32 -14q-46 -28 -46 -105 v-1464q0 -65 37 -98q23 -23 52 -23h4h4q6 0 10 2q18 5 33 12q45 31 45 107q0 108 63 149q33 23 64 23h18v-25q0 -107 -34 -175t-85 -103q-59 -39 -118 -39q-60 0 -119 39q-51 35 -85 103t-34 175zM113 1925q0 81 28 158q25 69 76.5 114.5t132.5 45.5h17v-25q0 -38 -15 -84 q-34 -86 -112 -86q-51 0 -76 -49q-6 -12 -17 -68v-4v-2h-34z" />
<glyph unicode="&#xca;" horiz-adv-x="563" d="M2 317v1170q0 107 34 175t85 103q59 39 119 39q59 0 118 -39q51 -35 85 -103t34 -175v-586q0 -106 -34.5 -173.5t-84.5 -102.5q-59 -39 -118 -39v24v25h4h10q19 5 33 14q45 31 45 107v878q0 66 -37 99q-22 22 -51 22h-4h-4q-7 0 -11 -2q-18 -4 -32 -14q-46 -28 -46 -105 v-1464q0 -65 37 -98q23 -23 52 -23h4h4q6 0 10 2q18 5 33 12q45 31 45 107q0 108 63 149q33 23 64 23h18v-25q0 -107 -34 -175t-85 -103q-59 -39 -118 -39q-60 0 -119 39q-51 35 -85 103t-34 175zM86 1903l154 204l153 -204h-106l-47 61l-47 -61h-107z" />
<glyph unicode="&#xcb;" horiz-adv-x="563" d="M2 317v1170q0 107 34 175t85 103q59 39 119 39q59 0 118 -39q51 -35 85 -103t34 -175v-586q0 -106 -34.5 -173.5t-84.5 -102.5q-59 -39 -118 -39v49q0 -2 4 0h10q19 5 33 14q45 31 45 107v878q0 66 -37 99q-22 22 -51 22h-4h-4q-7 0 -11 -2q-18 -4 -32 -14 q-46 -28 -46 -105v-1464q0 -65 37 -98q23 -23 52 -23h4h4q6 0 10 2q18 5 33 12q45 31 45 107q0 108 63 149q33 23 64 23h18v-25q0 -107 -34 -175t-85 -103q-59 -39 -118 -39q-60 0 -119 39q-51 35 -85 103t-34 175zM2 1999q0 40 21.5 69t52.5 29q29 0 50 -29t21 -69t-21 -68 t-50 -28q-31 0 -52.5 28t-21.5 68zM332 1999q0 40 21 69t50 29q31 0 52.5 -29t21.5 -69t-21.5 -68t-52.5 -28q-29 0 -50 28t-21 68z" />
<glyph unicode="&#xcc;" horiz-adv-x="245" d="M0 4v23v1609q0 110 66 150q34 22 63 22h16v-24v-823v-934v-23h-145zM0 2075v24h18q17 0 35 -10q39 -26 39 -86q0 -31 14 -41q8 -8 23 -8l-2 -49q-32 0 -66 22q-61 45 -61 148z" />
<glyph unicode="&#xcd;" horiz-adv-x="245" d="M0 4v23v1609q0 110 66 150q34 22 63 22h16v-24v-823v-934v-23h-145zM0 1931q0 41 16 86q13 34 42.5 58t70.5 24h16v-24q0 -22 -8 -47q-7 -21 -23.5 -35.5t-39.5 -14.5t-31 -20q-6 -10 -6 -29z" />
<glyph unicode="&#xce;" horiz-adv-x="260" d="M0 1903l86 225l84 -225h-68l-16 43l-16 -43h-70zM12 2v23v1609q0 110 66 150q14 9 29 14t23 6h9h19v-22v-824v-933v-23h-146z" />
<glyph unicode="&#xcf;" horiz-adv-x="245" d="M0 4v23v1609q0 110 66 150q34 22 63 22h16v-24v-823v-934v-23h-145zM0 2052q0 20 11 33.5t26 13.5t26 -13.5t11 -33.5q0 -21 -11 -35t-26 -14t-26 14t-11 35zM74 2052q0 20 11 33.5t26 13.5q14 0 24 -13.5t10 -33.5q0 -21 -10 -35t-24 -14q-15 0 -26 14t-11 35z" />
<glyph unicode="&#xd0;" horiz-adv-x="684" d="M0 1147v96h109v561h18q42 0 70.5 -25t42.5 -61q14 -43 14 -84v-391h111v-96h-111v-1147h-145v1147h-109zM346 0v49h4q6 0 10 2q18 5 33 12q45 31 45 107v1464q0 66 -37 99q-24 22 -51 22h-4v25v24q60 0 119 -39q51 -35 85 -103t34 -175v-1170q0 -107 -34 -175t-85 -103 q-59 -39 -119 -39z" />
<glyph unicode="&#xd1;" horiz-adv-x="575" d="M0 0v1462v27v-2v293v24h18q60 0 91 -47q62 47 127 47h2q59 0 118 -39q119 -79 119 -278v-1487h-145v1634q0 66 -37 99q-22 22 -51 22h-4h-5q-6 0 -10 -2q-19 -5 -33 -14q-45 -27 -45 -105v-1634h-145zM109 1999l2 10q4 11 10 23q16 26 35 28q13 0 26 -16q11 -15 17 -35 q2 -5 4.5 -11t3.5 -7q2 -2 2 -4q4 4 6 8q1 2 3 7t3 7l33 -20q0 -13 -18 -43q-29 -43 -56 -43q-21 0 -37 22q-17 19 -32 64zM221 2009q1 1 3.5 8t7 16.5t8.5 18.5q9 13 14 20t17 15t24 8q18 3 39 -22q17 -24 31 -64l2 -10l-2 -10q-5 -11 -11 -23q-16 -27 -35 -29 q-12 0 -26 17q-11 15 -17 35q-2 5 -4.5 11t-3.5 7l-2 2q-3 0 -6 -6l-6 -14zM293 1999zM293 1999z" />
<glyph unicode="&#xd2;" d="M2 317v1170q0 107 34 175t85 103q59 39 119 39q59 0 118 -39q51 -35 85 -103t34 -175v-1170q0 -107 -34 -175t-85 -103q-59 -39 -118 -39q-60 0 -119 39q-51 35 -85 103t-34 175zM111 2218v25h18q31 0 64 -21q65 -39 65 -149q0 -68 37 -101q14 -13 51 -22h4v-25v-22 q-60 0 -119 39q-51 34 -85.5 102t-34.5 174zM147 170q0 -65 37 -98q23 -23 52 -23h4h4q6 0 10 2q18 5 33 12q45 31 45 107v1464q0 66 -37 99q-22 22 -51 22h-4h-4q-7 0 -11 -2q-18 -4 -32 -14q-46 -28 -46 -105v-1464z" />
<glyph unicode="&#xd3;" d="M2 317v1170q0 107 34 175t85 103q59 39 119 39q59 0 118 -39q51 -35 85 -103t34 -175v-1170q0 -107 -34 -175t-85 -103q-59 -39 -118 -39q-60 0 -119 39q-51 35 -85 103t-34 175zM111 1925l1 23q2 22 9 61.5t20 73.5q25 69 76.5 114.5t132.5 45.5h19v-25q0 -32 -17 -84 q-34 -86 -112 -86q-51 0 -76 -49q-6 -12 -17 -68v-6h-18h-18zM147 170q0 -65 37 -98q23 -23 52 -23h4h4q6 0 10 2q18 5 33 12q45 31 45 107v1464q0 66 -37 99q-22 22 -51 22h-4h-4q-7 0 -11 -2q-18 -4 -32 -14q-46 -28 -46 -105v-1464z" />
<glyph unicode="&#xd4;" d="M2 317v1170q0 107 34 175t85 103q59 39 119 39q59 0 118 -39q51 -35 85 -103t34 -175v-1170q0 -107 -34 -175t-85 -103q-59 -39 -118 -39q-60 0 -119 39q-51 35 -85 103t-34 175zM86 1903l154 204l153 -204h-106l-47 61l-47 -61h-107zM147 170q0 -65 37 -98 q23 -23 52 -23h4h4q6 0 10 2q18 5 33 12q45 31 45 107v1464q0 66 -37 99q-22 22 -51 22h-4h-4q-7 0 -11 -2q-18 -4 -32 -14q-46 -28 -46 -105v-1464z" />
<glyph unicode="&#xd5;" d="M2 317v1170q0 107 34 175t85 103q59 39 119 39q59 0 118 -39q51 -35 85 -103t34 -175v-1170q0 -107 -34 -175t-85 -103q-59 -39 -118 -39q-60 0 -119 39q-51 35 -85 103t-34 175zM111 1999l2 10q4 11 10 23q15 26 35 28q13 0 26 -16q11 -15 17 -35q2 -5 4.5 -11t3.5 -7 q2 -2 2 -4q4 4 6 8q6 12 6 14l33 -20q0 -7 -18 -43q-29 -43 -56 -43q-21 0 -37 22q-17 19 -32 64zM147 170q0 -65 37 -98q23 -23 52 -23h4h4q6 0 10 2q18 5 33 12q45 31 45 107v1464q0 66 -37 99q-22 22 -51 22h-4h-4q-7 0 -11 -2q-18 -4 -32 -14q-46 -28 -46 -105v-1464z M223 2009l17 -10zM223 2009q0 11 19 43q9 13 14 20t17 15t24 8q19 3 37 -22q18 -21 33 -64l2 -10l-2 -10q-5 -11 -11 -23q-16 -27 -34 -29q-12 0 -27 15q-10 17 -16 37l-9 18l-2 2q-3 0 -6 -6l-6 -14z" />
<glyph unicode="&#xd6;" d="M2 317v1170q0 107 34 175t85 103q59 39 119 39q59 0 118 -39q51 -35 85 -103t34 -175v-1170q0 -107 -34 -175t-85 -103q-59 -39 -118 -39q-60 0 -119 39q-51 35 -85 103t-34 175zM2 1999q0 40 21.5 69t52.5 29q29 0 50 -29t21 -69t-21 -68t-50 -28q-31 0 -52.5 28 t-21.5 68zM147 170q0 -65 37 -98q23 -23 52 -23h4h4q6 0 10 2q18 5 33 12q45 31 45 107v1464q0 66 -37 99q-22 22 -51 22h-4h-4q-7 0 -11 -2q-18 -4 -32 -14q-46 -28 -46 -105v-1464zM332 1999q0 40 21 69t50 29q31 0 52.5 -29t21.5 -69t-21.5 -68t-52.5 -28q-29 0 -50 28 t-21 68z" />
<glyph unicode="&#xd7;" horiz-adv-x="571" d="M0 297v25q0 106 35 175t86 101q16 12 24 16q-12 6 -24 15q-121 80 -121 278v23h18q29 0 64 -21q65 -42 65 -149q0 -66 35 -101q25 -20 54 -20h2h4q6 0 10 2q21 4 33 12q45 31 45 107q0 110 65 149q14 9 29.5 14t23.5 6l9 1h18v-23q0 -199 -119 -278q-8 -6 -26 -15 q14 -7 26 -16q51 -32 85 -101t34 -175v-25h-18q-31 0 -62 20q-28 17 -46.5 55t-18.5 95q0 70 -37 100q-16 14 -51 23h-4h-2q-2 0 -6 -1t-7 -1q-17 -4 -33 -15q-43 -30 -43 -106q0 -57 -19 -95t-46 -55q-33 -20 -64 -20h-18z" />
<glyph unicode="&#xd8;" horiz-adv-x="573" d="M0 317v1170q0 199 119 278q59 39 119 39v-16v16q36 0 79 -18l2 18h74l-8 -63q90 -86 90 -254v-1170q0 -198 -121 -278q-26 -17 -55 -27t-45 -11l-16 -1v12v-12q-37 0 -80 18l-4 -18h-74l8 63q-88 84 -88 254zM145 489l162 1227q-22 33 -63 39h-6h-5q-6 0 -10 -2 q-21 -4 -33 -14q-45 -27 -45 -105v-1145zM166 88q22 -33 63 -39h9h2q6 0 12 2q19 5 31 12q45 29 45 107v1145z" />
<glyph unicode="&#xd9;" d="M2 317v1487h18q31 0 64 -20q27 -17 45.5 -55.5t17.5 -94.5v-786v-678q2 -67 37 -98q23 -23 52 -23h4h4q6 0 10 2q18 5 33 12q43 30 45 107v1464q0 109 63 150q33 20 64 20h18v-1487q0 -107 -34 -175t-85 -103q-59 -39 -118 -39q-60 0 -119 39q-51 35 -85 103t-34 175z M111 2218v25h18q31 0 64 -21q65 -39 65 -149q0 -68 37 -101q22 -20 51 -20q2 -2 4 -2v-23v-24q-60 0 -119 39q-51 34 -85.5 102t-34.5 174z" />
<glyph unicode="&#xda;" d="M2 317v1487h18q31 0 64 -20q27 -17 45.5 -55.5t17.5 -94.5v-786v-678q2 -67 37 -98q23 -23 52 -23h4h4q6 0 10 2q18 5 33 12q43 30 45 107v1464q0 109 63 150q33 20 64 20h18v-1487q0 -107 -34 -175t-85 -103q-59 -39 -118 -39q-60 0 -119 39q-51 35 -85 103t-34 175z M113 1925q0 83 28 158q25 69 76.5 114.5t132.5 45.5h17v-25q0 -38 -15 -84q-34 -86 -112 -86q-51 0 -76 -49q-6 -12 -17 -68v-6h-18h-16z" />
<glyph unicode="&#xdb;" d="M2 317v1487h18q31 0 64 -20q27 -17 45.5 -55.5t17.5 -94.5v-786v-678q0 -65 37 -98q23 -23 52 -23h4h4q6 0 10 2q18 5 33 12q45 31 45 107v1464q0 109 63 150q33 20 64 20h18v-1487q0 -107 -34 -175t-85 -103q-59 -39 -118 -39q-60 0 -119 39q-119 79 -119 278zM86 1903 l154 204l153 -204h-106l-47 61l-47 -61h-107z" />
<glyph unicode="&#xdc;" d="M2 317v1487h18q31 0 64 -20q27 -17 45.5 -55.5t17.5 -94.5v-786v-678q0 -65 37 -98q23 -23 52 -23h4h4q6 0 10 2q18 5 33 12q45 31 45 107v1464q0 109 63 150q33 20 64 20h18v-1487q0 -107 -34 -175t-85 -103q-59 -39 -118 -39q-60 0 -119 39q-51 35 -85 103t-34 175z M2 1999q0 40 21.5 69t52.5 29q29 0 50 -29t21 -69t-21 -68t-50 -28q-31 0 -52.5 28t-21.5 68zM332 1999q0 40 21 69t50 29q31 0 52.5 -29t21.5 -69t-21.5 -68t-52.5 -28q-29 0 -50 28t-21 68z" />
<glyph unicode="&#xdd;" d="M2 317v25h18q31 0 64 -23q63 -41 63 -149q0 -65 37 -98q23 -23 52 -23h4h4q6 0 10 2q18 5 33 12q43 30 45 107v1464q0 109 63 150q33 20 64 20h18v-1487q0 -107 -34 -175t-85 -103q-59 -39 -118 -39q-60 0 -119 39q-51 35 -85 103t-34 175zM2 901v903h18q31 0 64 -20 q63 -41 63 -150v-878q0 -64 37 -101q22 -20 52 -20h4v-25v-24q-60 0 -119 39q-50 35 -84.5 102.5t-34.5 173.5zM111 1925l1 23q2 22 9 61.5t20 73.5q25 69 76.5 114.5t132.5 45.5h19v-25q0 -32 -17 -84q-34 -86 -112 -86q-51 0 -76 -49q-6 -12 -17 -68v-6h-36z" />
<glyph unicode="&#xde;" horiz-adv-x="567" d="M0 -580v2386h18q31 0 64 -20q27 -17 45.5 -55.5t17.5 -94.5v-438q49 25 93 25q59 0 118 -39q119 -79 119 -279v-586q0 -197 -119 -276q-59 -39 -118 -39v23v24h4q2 2 10 2q17 4 33 15q45 31 45 106v877q0 67 -37 100q-26 23 -51 23h-4h-5q-1 0 -4.5 -1.5t-5.5 -1.5 q-19 -5 -33 -14q-45 -31 -45 -106v-877v-729v-25h-145z" />
<glyph unicode="&#xdf;" horiz-adv-x="786" d="M0 -584v2071q0 199 119 278q59 39 119 39q57 0 116 -39q119 -81 121 -268v-6v-4v-146q0 -69 35 -100q19 -15 53 -22h2v-25v-8q4 -2 8 -6q52 -34 86.5 -103t34.5 -176v-584q0 -198 -121 -278q-26 -17 -55 -27t-45 -11l-16 -1q-60 0 -119 39q-119 79 -119 278v25h19 q30 0 61 -23q66 -40 66 -149q0 -69 36 -98q23 -23 52 -23h4h2q6 0 12 2q18 5 33 12q43 30 43 107v879q0 65 -35 100q-25 20 -53 20h-2v25v10q-4 4 -8 4q-52 34 -86.5 102.5t-34.5 174.5v2v145v2q0 68 -35 99q-24 22 -53 22h-2h-5q-6 0 -10 -2q-21 -4 -33 -14 q-45 -27 -45 -105v-2218h-145zM365 1485v2v-2zM365 1485v2v-2z" />
<glyph unicode="&#xe0;" horiz-adv-x="573" d="M2 317v146q0 107 34 175t85 103q59 39 119 39v-49h-4q-7 0 -11 -2q-18 -4 -32 -14q-46 -28 -46 -105v-440q0 -65 37 -98q23 -23 52 -23h4h4q6 0 10 2q18 5 33 12q45 31 45 107v879q0 63 -37 100q-23 20 -51 20h-4h-4q-7 0 -11 -2q-22 -6 -32 -12q-46 -32 -46 -106 q0 -109 -63 -150q-33 -20 -64 -20h-18v22q0 107 34.5 176t84.5 103q59 39 119 39q59 0 118 -39q50 -34 84.5 -103t34.5 -176v-584q0 -107 -34 -175t-85 -103q-59 -39 -118 -39q-60 0 -119 39q-51 35 -85 103t-34 175zM111 1634v25h18q28 0 64 -23q65 -39 65 -149 q0 -68 37 -101q22 -20 51 -20h4v-25v-24q-60 0 -119 39q-120 79 -120 278z" />
<glyph unicode="&#xe1;" horiz-adv-x="573" d="M2 317v146q0 107 34 175t85 103q59 39 119 39v-49h-4q-7 0 -11 -2q-18 -4 -32 -14q-46 -28 -46 -105v-440q0 -65 37 -98q23 -23 52 -23h4h4q6 0 10 2q18 5 33 12q45 31 45 107v879q0 63 -37 100q-23 20 -51 20h-4h-4q-7 0 -11 -2q-22 -6 -32 -12q-46 -32 -46 -106 q0 -109 -63 -150q-33 -20 -64 -20h-18v22q0 107 34.5 176t84.5 103q59 39 119 39q59 0 118 -39q50 -34 84.5 -103t34.5 -176v-584q0 -107 -34 -175t-85 -103q-59 -39 -118 -39q-60 0 -119 39q-51 35 -85 103t-34 175zM113 1341q0 81 28 156q25 69 76.5 114.5t132.5 45.5h19 v-23q0 -34 -17 -84q-33 -88 -112 -88q-50 0 -76 -47q-9 -20 -17 -69v-5h-18h-16z" />
<glyph unicode="&#xe2;" horiz-adv-x="575" d="M2 317v146q0 107 34 175t85 103q59 39 119 39v-24v-25h-4q-7 0 -11 -2q-18 -4 -32 -14q-46 -28 -46 -105v-440q0 -65 37 -98q23 -23 52 -23h4h4q6 0 10 2q18 5 33 12q45 31 45 107v879q0 63 -37 100q-23 20 -51 20h-4h-4q-7 0 -11 -2q-22 -6 -32 -12q-46 -32 -46 -106 q0 -109 -63 -150q-33 -20 -64 -20h-18v22q0 107 34.5 176t84.5 103q59 39 119 39q59 0 118 -39q50 -34 84.5 -103t34.5 -176v-584q0 -107 -34 -175t-85 -103q-59 -39 -118 -39q-60 0 -119 39q-51 35 -85 103t-34 175zM86 1317l154 205l153 -205h-106l-47 63l-47 -63h-107z " />
<glyph unicode="&#xe3;" horiz-adv-x="575" d="M2 317v146q0 107 34 175t85 103q59 39 119 39v-24v-25h-4q-7 0 -11 -2q-18 -4 -32 -14q-46 -28 -46 -105v-440q0 -65 37 -98q23 -23 52 -23h4h4q6 0 10 2q18 5 33 12q45 31 45 107v879q0 63 -37 100q-23 20 -51 20h-4h-4q-7 0 -11 -2q-22 -6 -32 -12q-46 -32 -46 -106 q0 -109 -63 -150q-33 -20 -64 -20h-18v22q0 107 34.5 176t84.5 103q59 39 119 39q59 0 118 -39q50 -34 84.5 -103t34.5 -176v-584q0 -107 -34 -175t-85 -103q-59 -39 -118 -39q-60 0 -119 39q-51 35 -85 103t-34 175zM111 1413l2 10q0 6 10 23q13 27 35 29q11 0 26 -15 q13 -22 17 -37q2 -5 4.5 -11t3.5 -7l2 -2l6 6q1 2 2.5 5.5t2.5 5.5t1 3l33 -20q0 -9 -18 -41q-27 -45 -56 -45q-21 0 -37 22q-17 19 -32 64zM223 1423v2q0 1 3 8t7.5 16l8.5 17q29 43 55 45q21 0 37 -22q19 -25 33 -66l2 -10l-2 -10q-5 -11 -11 -23q-16 -26 -34 -26 q-13 0 -27 14q-10 13 -16 35q-6 15 -9 18q-2 2 -2 4q-4 -4 -6 -8q-1 -2 -2.5 -5.5t-2.5 -5.5t-1 -3z" />
<glyph unicode="&#xe4;" d="M2 317v146q0 107 34 175t85 103q59 39 119 39v-49h-4q-7 0 -11 -2q-18 -4 -32 -14q-46 -28 -46 -105v-440q0 -65 37 -98q23 -23 52 -23h4h4q6 0 10 2q18 5 33 12q45 31 45 107v879q0 63 -37 100q-23 20 -51 20h-4h-4q-7 0 -11 -2q-22 -6 -32 -12q-46 -32 -46 -106 q0 -109 -63 -150q-33 -20 -64 -20h-18v22q0 107 34.5 176t84.5 103q59 39 119 39q59 0 118 -39q50 -34 84.5 -103t34.5 -176v-584q0 -107 -34 -175t-85 -103q-59 -39 -118 -39q-60 0 -119 39q-51 35 -85 103t-34 175zM2 1413q0 41 21.5 69.5t52.5 28.5q29 0 50 -28.5 t21 -69.5q0 -40 -21 -68t-50 -28q-31 0 -52.5 28t-21.5 68zM332 1413q0 41 21 69.5t50 28.5q31 0 52.5 -28.5t21.5 -69.5q0 -40 -21.5 -68t-52.5 -28q-29 0 -50 28t-21 68z" />
<glyph unicode="&#xe5;" horiz-adv-x="575" d="M2 317v146q0 107 34 175t85 103q59 39 119 39v-24v-25h-4q-7 0 -11 -2q-18 -4 -32 -14q-46 -28 -46 -105v-440q0 -65 37 -98q23 -23 52 -23h4h4q6 0 10 2q18 5 33 12q45 31 45 107v879q0 63 -37 100q-23 20 -51 20h-4h-4q-7 0 -11 -2q-22 -6 -32 -12q-46 -32 -46 -106 q0 -109 -63 -150q-33 -20 -64 -20h-18v22q0 107 34.5 176t84.5 103q59 39 119 39q59 0 118 -39q50 -34 84.5 -103t34.5 -176v-584q0 -107 -34 -175t-85 -103q-59 -39 -118 -39q-60 0 -119 39q-51 35 -85 103t-34 175zM113 1487q0 108 61 147q33 23 64 23v2v-2l2 2v-49 q-13 0 -21 -8q-16 -12 -16 -41v-148q0 -25 16 -41q6 -6 21 -6v-49h-2q-32 0 -64 22q-26 17 -43.5 55t-17.5 93zM240 1317v49q14 0 20 6q16 16 16 41v148q0 29 -16 41q-8 8 -20 8v49q2 0 2 -2v2v-2q30 0 63 -23q62 -40 62 -147q0 -55 -18 -93t-44 -55q-32 -22 -63 -22h-2z " />
<glyph unicode="&#xe6;" horiz-adv-x="884" d="M2 317v146q0 199 119 278q59 39 119 39v-49h-4q-7 0 -11 -2q-18 -4 -32 -14q-46 -28 -46 -105v-440q0 -65 37 -98q23 -23 52 -23h4h4q6 0 10 2q18 5 33 12q45 31 45 107v879q0 63 -37 100q-23 20 -51 20h-4h-4q-7 0 -11 -2q-22 -6 -32 -12q-46 -32 -46 -106 q0 -109 -63 -150q-33 -20 -64 -20h-18v22q0 200 119 279q59 39 119 39h6q96 -10 157 -80q61 70 160 80h6q58 0 117 -39q52 -34 86.5 -103t34.5 -176q0 -196 -121 -276q-26 -17 -55.5 -27t-45.5 -11l-16 -1v49h2h13q18 5 30 14q45 29 45 107v293q0 66 -34 100q-25 20 -54 20 h-2h-2h-2q-6 0 -10 -2q-24 -5 -33 -12q-45 -31 -45 -106v-879q0 -68 37 -98q23 -23 51 -23h4h2q7 0 13 2q17 4 30 12q45 29 45 107q0 106 66 149q33 23 63 23h19v-25q0 -198 -121 -278q-26 -17 -55.5 -27t-45.5 -11l-16 -1h-6q-99 10 -160 80q-61 -70 -157 -80h-6 q-60 0 -119 39q-119 79 -119 278z" />
<glyph unicode="&#xe7;" horiz-adv-x="540" d="M2 326v583q0 200 119 279q59 39 119 39q57 0 116 -39q52 -34 86.5 -103t34.5 -176v-24h-18q-32 0 -64 22q-27 17 -45.5 55.5t-17.5 94.5q0 65 -37 98q-26 23 -51 23h-4h-4q-7 0 -11 -2q-12 -3 -32 -13q-46 -32 -46 -106v-879q0 -67 37 -100q24 -21 52 -21h4h4q6 0 10 2 q22 5 33 13q45 31 45 106q0 109 63 150q36 22 64 22h18v-24q0 -107 -34.5 -176t-86.5 -103q-11 -9 -41 -22q52 -41 52 -138q0 -101 -62 -147q-33 -23 -63 -23h-2v50q9 0 20 8q16 12 16 41v145q0 31 -16 39q-11 8 -20 8q-60 0 -119 39q-119 79 -119 279zM111 -88h18 q19 0 37 -12q37 -21 37 -84q0 -29 16 -41q8 -8 21 -8l-2 -50q-31 0 -64 23q-63 44 -63 147v25z" />
<glyph unicode="&#xe8;" horiz-adv-x="569" d="M2 317v584q0 107 34.5 176t84.5 103q59 39 119 39q59 0 118 -39q50 -34 84.5 -103t34.5 -176v-145q0 -107 -34.5 -176t-84.5 -103q-59 -39 -118 -39v25v24h4q1 0 4.5 1t5.5 1q17 4 33 15q45 31 45 106v439q0 63 -37 100q-23 20 -51 20h-4h-4q-7 0 -11 -2q-22 -6 -32 -12 q-46 -32 -46 -106v-879q0 -65 37 -98q23 -23 52 -23h4h4q6 0 10 2q18 5 33 12q45 31 45 107q0 108 63 149q33 23 64 23h18v-25q0 -107 -34 -175t-85 -103q-59 -39 -118 -39q-60 0 -119 39q-51 35 -85 103t-34 175zM113 1634v25h16q28 0 64 -23q65 -39 65 -149q0 -68 37 -101 q22 -20 51 -20h4v-25v-24q-60 0 -119 39q-118 78 -118 278z" />
<glyph unicode="&#xe9;" horiz-adv-x="569" d="M2 317v584q0 107 34.5 176t84.5 103q59 39 119 39q59 0 118 -39q50 -34 84.5 -103t34.5 -176v-145q0 -107 -34.5 -176t-84.5 -103q-59 -39 -118 -39v25v24h4q1 0 4.5 1t5.5 1q17 4 33 15q45 31 45 106v439q0 63 -37 100q-23 20 -51 20h-4h-4q-7 0 -11 -2q-22 -6 -32 -12 q-46 -32 -46 -106v-879q0 -65 37 -98q23 -23 52 -23h4h4q6 0 10 2q18 5 33 12q45 31 45 107q0 108 63 149q33 23 64 23h18v-25q0 -107 -34 -175t-85 -103q-59 -39 -118 -39q-60 0 -119 39q-51 35 -85 103t-34 175zM113 1341q0 81 28 156q25 69 76.5 114.5t132.5 45.5h19v-23 q0 -34 -17 -84q-33 -88 -112 -88q-50 0 -76 -47q-9 -20 -17 -69v-5h-34z" />
<glyph unicode="&#xea;" horiz-adv-x="571" d="M2 317v584q0 107 34.5 176t84.5 103q59 39 119 39q59 0 118 -39q50 -34 84.5 -103t34.5 -176v-145q0 -107 -34.5 -176t-84.5 -103q-59 -39 -118 -39v25v24h4q1 0 4.5 1t5.5 1q17 4 33 15q45 31 45 106v439q0 63 -37 100q-23 20 -51 20h-4h-4q-7 0 -11 -2q-22 -6 -32 -12 q-46 -32 -46 -106v-879q0 -65 37 -98q23 -23 52 -23h4h4q6 0 10 2q18 5 33 12q45 31 45 107q0 108 63 149q33 23 64 23h18v-25q0 -107 -34 -175t-85 -103q-59 -39 -118 -39q-60 0 -119 39q-51 35 -85 103t-34 175zM86 1317l154 205l153 -205h-106l-47 63l-47 -63h-107z" />
<glyph unicode="&#xeb;" horiz-adv-x="573" d="M2 317v584q0 107 34.5 176t84.5 103q59 39 119 39q59 0 118 -39q50 -34 84.5 -103t34.5 -176v-145q0 -107 -34.5 -176t-84.5 -103q-59 -39 -118 -39v25v24h4q1 0 4.5 1t5.5 1q17 4 33 15q45 31 45 106v439q0 63 -37 100q-23 20 -51 20h-4h-4q-7 0 -11 -2q-22 -6 -32 -12 q-46 -32 -46 -106v-879q0 -65 37 -98q23 -23 52 -23h4h4q6 0 10 2q18 5 33 12q45 31 45 107q0 108 63 149q33 23 64 23h18v-25q0 -107 -34 -175t-85 -103q-59 -39 -118 -39q-60 0 -119 39q-51 35 -85 103t-34 175zM2 1413q0 41 21.5 69.5t52.5 28.5q29 0 50 -28.5t21 -69.5 q0 -40 -21 -68t-50 -28q-31 0 -52.5 28t-21.5 68zM332 1413q0 41 21 69.5t50 28.5q31 0 52.5 -28.5t21.5 -69.5q0 -40 -21.5 -68t-52.5 -28q-29 0 -50 28t-21 68z" />
<glyph unicode="&#xec;" horiz-adv-x="241" d="M0 4v23v1024q0 57 19 95.5t47 55.5q33 21 63 21h16v-1219h-145zM0 1491v25h18q15 0 35 -13q39 -26 39 -86q0 -31 14 -41q11 -8 21 -8h2l-2 -49l-9 1q-9 2 -16 4t-18.5 7t-22.5 12q-61 39 -61 148z" />
<glyph unicode="&#xed;" horiz-adv-x="251" d="M0 4v23v1024q0 57 19 95.5t47 55.5q33 21 63 21h16v-1219h-145zM0 1346q0 41 16 86q14 35 43 59.5t70 24.5h16v-25q0 -24 -8 -47q-7 -21 -23.5 -36t-39.5 -15t-31 -21q-6 -10 -6 -29z" />
<glyph unicode="&#xee;" horiz-adv-x="262" d="M0 1319l84 225l84 -225h-68l-16 43l-16 -43h-68zM12 4v23v1024q0 57 18.5 95.5t45.5 55.5q35 21 63 21h19v-1219h-146z" />
<glyph unicode="&#xef;" horiz-adv-x="251" d="M0 4v23v1024q0 57 19 95.5t47 55.5q33 21 63 21h16v-1219h-145zM0 1466q0 20 11 35t26 15t26 -15t11 -35t-11 -34.5t-26 -14.5t-26 14.5t-11 34.5zM74 1466q0 20 11 35t26 15q14 0 24 -15t10 -35t-10 -34.5t-24 -14.5q-15 0 -26 14.5t-11 34.5z" />
<glyph unicode="&#xf0;" horiz-adv-x="659" d="M2 317v584q0 107 34.5 176t84.5 103q59 39 119 39v-25v-25h-4q-7 0 -11 -2q-22 -6 -32 -12q-46 -32 -46 -106v-879q0 -65 37 -98q23 -23 52 -23h4h4q6 0 10 2q18 5 33 12q45 31 45 107v684h-111v96h111v684q0 41 14 84q14 36 42.5 61t70.5 25h18v-854h111v-96h-111v-537 q0 -107 -34 -175t-85 -103q-59 -39 -118 -39q-60 0 -119 39q-51 35 -85 103t-34 175z" />
<glyph unicode="&#xf1;" horiz-adv-x="579" d="M0 0v879v24v291v25h18q59 0 91 -48q36 27 70.5 37.5t53.5 10.5h5q59 0 118 -39q119 -79 119 -279v-901h-145v1049q0 63 -37 100q-23 20 -51 20h-4h-2h-3q-6 0 -10 -2q-24 -6 -33 -12q-43 -30 -45 -106v-1049h-145zM109 1413l2 10q0 6 10 23q13 27 35 29q11 0 26 -15 q13 -22 17 -37q2 -5 4.5 -11t3.5 -7l2 -2l6 6q1 2 2.5 5.5t2.5 5.5t1 3l33 -20q-9 -26 -18 -41q-27 -45 -56 -45q-21 0 -37 22q-17 19 -32 64zM221 1423v2q0 1 3 8t7.5 16l8.5 17q29 43 55 45q20 0 39 -22q18 -29 31 -66l2 -10l-2 -10q-5 -11 -11 -23q-16 -26 -35 -26 q-12 0 -26 14q-11 15 -17 35q-7 17 -8 18q-2 2 -2 4q-4 -4 -6 -8l-6 -12v-2z" />
<glyph unicode="&#xf2;" horiz-adv-x="573" d="M2 317v584q0 107 34.5 176t84.5 103q59 39 119 39q59 0 118 -39q50 -34 84.5 -103t34.5 -176v-584q0 -107 -34 -175t-85 -103q-59 -39 -118 -39q-60 0 -119 39q-51 35 -85 103t-34 175zM113 1634v25h16q28 0 64 -23q65 -39 65 -149q0 -68 37 -101q22 -20 51 -20h4v-25 v-24q-60 0 -119 39q-118 78 -118 278zM147 170q0 -65 37 -98q23 -23 52 -23h4h4q6 0 10 2q18 5 33 12q45 31 45 107v879q0 63 -37 100q-23 20 -51 20h-4h-4q-7 0 -11 -2q-22 -6 -32 -12q-46 -32 -46 -106v-879z" />
<glyph unicode="&#xf3;" horiz-adv-x="573" d="M2 317v584q0 107 34.5 176t84.5 103q59 39 119 39q59 0 118 -39q50 -34 84.5 -103t34.5 -176v-584q0 -107 -34 -175t-85 -103q-59 -39 -118 -39q-60 0 -119 39q-51 35 -85 103t-34 175zM113 1341q0 81 28 156q25 69 76.5 114.5t132.5 45.5h17v-23q0 -40 -15 -84 q-33 -88 -112 -88q-50 0 -76 -47q-9 -20 -17 -69v-5h-18h-16zM147 170q0 -65 37 -98q23 -23 52 -23h4h4q6 0 10 2q18 5 33 12q45 31 45 107v879q0 63 -37 100q-23 20 -51 20h-4h-4q-7 0 -11 -2q-22 -6 -32 -12q-46 -32 -46 -106v-879z" />
<glyph unicode="&#xf4;" horiz-adv-x="575" d="M2 317v584q0 107 34.5 176t84.5 103q59 39 119 39q59 0 118 -39q50 -34 84.5 -103t34.5 -176v-584q0 -107 -34 -175t-85 -103q-59 -39 -118 -39q-60 0 -119 39q-51 35 -85 103t-34 175zM86 1317l154 205l153 -205h-106l-47 63l-47 -63h-107zM147 170q0 -65 37 -98 q23 -23 52 -23h4h4q6 0 10 2q18 5 33 12q45 31 45 107v879q0 63 -37 100q-23 20 -51 20h-4h-4q-7 0 -11 -2q-22 -6 -32 -12q-46 -32 -46 -106v-879z" />
<glyph unicode="&#xf5;" horiz-adv-x="575" d="M2 317v584q0 107 34.5 176t84.5 103q59 39 119 39q59 0 118 -39q50 -34 84.5 -103t34.5 -176v-584q0 -107 -34 -175t-85 -103q-59 -39 -118 -39q-60 0 -119 39q-51 35 -85 103t-34 175zM111 1413l2 10q0 6 10 23q13 27 35 29q11 0 26 -15q13 -22 17 -37q2 -5 4.5 -11 t3.5 -7l2 -2l6 6q1 2 2.5 5.5t2.5 5.5t1 3l33 -20q0 -9 -18 -41q-27 -45 -56 -45q-21 0 -37 22q-17 19 -32 64zM147 170q0 -65 37 -98q23 -23 52 -23h4h4q6 0 10 2q18 5 33 12q45 31 45 107v879q0 63 -37 100q-23 20 -51 20h-4h-4q-7 0 -11 -2q-22 -6 -32 -12 q-46 -32 -46 -106v-879zM223 1423l17 -10zM223 1423q0 11 19 43q29 43 55 45q21 0 37 -22q19 -25 33 -66l2 -10l-2 -10q-5 -11 -11 -23q-16 -26 -34 -26q-16 0 -27 14q-10 13 -16 35q-6 15 -9 18q-2 2 -2 4q-4 -4 -6 -8q-1 -2 -2.5 -5.5t-2.5 -5.5t-1 -3z" />
<glyph unicode="&#xf6;" d="M2 317v584q0 107 34.5 176t84.5 103q59 39 119 39q59 0 118 -39q50 -34 84.5 -103t34.5 -176v-584q0 -107 -34 -175t-85 -103q-59 -39 -118 -39q-60 0 -119 39q-51 35 -85 103t-34 175zM2 1413q0 41 21.5 69.5t52.5 28.5q29 0 50 -28.5t21 -69.5q0 -40 -21 -68t-50 -28 q-31 0 -52.5 28t-21.5 68zM147 170q0 -65 37 -98q23 -23 52 -23h4h4q6 0 10 2q18 5 33 12q45 31 45 107v879q0 63 -37 100q-23 20 -51 20h-4h-4q-7 0 -11 -2q-22 -6 -32 -12q-46 -32 -46 -106v-879zM332 1413q0 41 21 69.5t50 28.5q31 0 52.5 -28.5t21.5 -69.5 q0 -40 -21.5 -68t-52.5 -28q-29 0 -50 28t-21 68z" />
<glyph unicode="&#xf7;" horiz-adv-x="559" d="M0 532v25v117v24h477v-24v-117v-25h-477zM166 395q0 40 21.5 69.5t52.5 29.5q29 0 50 -29.5t21 -69.5t-21 -69t-50 -29q-31 0 -52.5 29t-21.5 69zM166 834q0 41 21.5 69.5t52.5 28.5q29 0 50 -28.5t21 -69.5q0 -40 -21 -68.5t-50 -28.5q-31 0 -52.5 28.5t-21.5 68.5z" />
<glyph unicode="&#xf8;" horiz-adv-x="571" d="M0 319v586q0 107 34.5 176t86.5 103q59 39 117 39v-13v13q18 0 43 -6l20 151h74l-25 -182q53 -32 89 -101.5t36 -179.5v-586q0 -197 -119 -276q-59 -39 -118 -39v23v-23q-18 0 -43 6l-21 -151h-74l25 180q-53 32 -89 101t-36 179zM145 201l129 962q-26 11 -32 11h-4h-5 q-1 0 -4.5 -1.5t-5.5 -1.5q-19 -5 -33 -14q-45 -31 -45 -106v-850zM201 61q6 -3 12.5 -5t12 -3t7.5 -2h5h4q2 2 10 2q17 4 33 15q45 31 45 106v852zM238 27z" />
<glyph unicode="&#xf9;" horiz-adv-x="581" d="M0 317v902h18q29 0 64 -21q63 -41 63 -149v-879q2 -67 37 -98q26 -23 51 -23h5v-24v-25q-58 0 -117 39q-121 80 -121 278zM111 1634v25h18q30 -3 61 -23q66 -40 66 -149q0 -68 37 -98q23 -23 51 -23h2h2v-49q-60 0 -119 39q-118 78 -118 278zM330 0v25v1024q0 108 63 149 q35 21 64 21h18v-1219h-145z" />
<glyph unicode="&#xfa;" horiz-adv-x="585" d="M0 317v902h18q29 0 64 -21q63 -41 63 -149v-879q0 -65 37 -98q26 -23 51 -23h5v-49q-58 0 -117 39q-121 80 -121 278zM219 1341q0 78 29 158q64 160 209 160h18v-25q0 -43 -14 -84q-14 -37 -42.5 -62.5t-70.5 -25.5q-53 0 -76 -47q-16 -36 -16 -69v-5h-18h-19zM330 0v25 v1024q0 108 63 149q35 21 64 21h18v-1219h-145z" />
<glyph unicode="&#xfb;" horiz-adv-x="585" d="M0 317v902h18q29 0 64 -21q63 -41 63 -149v-879q0 -65 37 -98q26 -23 51 -23h5v-24v-25q-58 0 -117 39q-121 80 -121 278zM84 1317l141 188l13 17l153 -205h-106l-47 63l-48 -63h-106zM330 0v25v1024q0 108 63 149q35 21 64 21h18v-1219h-145z" />
<glyph unicode="&#xfc;" d="M0 317v902h18q29 0 64 -21q63 -41 63 -149v-879q0 -65 37 -98q26 -23 51 -23h5v-24v-25q-58 0 -117 39q-121 80 -121 278zM0 1413q0 41 21.5 69.5t52.5 28.5q29 0 50 -28.5t21 -69.5q0 -40 -21 -68t-50 -28q-31 0 -52.5 28t-21.5 68zM330 0v25v1024q0 108 63 149 q35 21 64 21h18v-1219h-145zM330 1413q0 41 21 69.5t50 28.5q31 0 52.5 -28.5t21.5 -69.5q0 -40 -21.5 -68t-52.5 -28q-29 0 -50 28t-21 68z" />
<glyph unicode="&#xfd;" horiz-adv-x="579" d="M0 -240h18q31 0 64 -20q63 -41 63 -150q0 -63 37 -100q25 -20 51 -20h5h4q6 0 10 2q24 6 33 12q45 31 45 106v1461q0 110 63 151q35 21 64 21h18v-1485q0 -200 -119 -279q-59 -39 -118 -39q-58 0 -117 39q-52 34 -86.5 103t-34.5 176v22zM0 319v904h18q29 0 64 -21 q63 -41 63 -151v-877q0 -67 37 -100q19 -15 51 -23h5v-24v-23q-58 0 -117 39q-121 80 -121 276zM111 1343q0 81 28 158q25 69 76.5 114.5t132.5 45.5h19v-25q0 -38 -17 -84q-32 -86 -112 -86q-52 0 -74 -49q-17 -30 -17 -67l-2 -7h-34z" />
<glyph unicode="&#xfe;" horiz-adv-x="567" d="M0 -580v2388h18q28 0 64 -22q27 -17 45.5 -55.5t17.5 -94.5v-438q49 25 93 25q59 0 118 -39q119 -79 119 -279v-586q0 -197 -119 -276q-59 -39 -118 -39v23v24h4q2 2 10 2q17 4 33 15q45 31 45 106v877q0 67 -37 100q-26 23 -51 23h-4h-5q-1 0 -4.5 -1.5t-5.5 -1.5 q-19 -5 -33 -14q-45 -31 -45 -106v-877v-729v-25h-145z" />
<glyph unicode="&#xff;" d="M0 -238h18q28 0 64 -22q63 -41 63 -150q0 -63 37 -100q25 -20 51 -20h5h4q6 0 10 2q24 6 33 12q43 30 45 106v1461q0 110 63 151q35 21 64 21h18v-1485q0 -200 -119 -279q-59 -39 -118 -39q-58 0 -117 39q-52 34 -86.5 103t-34.5 176v24zM0 319v904h18q29 0 64 -21 q63 -41 63 -151v-877q0 -63 37 -100q19 -15 51 -23h5v-24v-23q-58 0 -117 39q-121 80 -121 276zM0 1417q0 40 21.5 69.5t52.5 29.5q29 0 50 -29.5t21 -69.5t-21 -69t-50 -29q-31 0 -52.5 29t-21.5 69zM330 1417q0 40 21 69.5t50 29.5q31 0 52.5 -29.5t21.5 -69.5t-21.5 -69 t-52.5 -29q-29 0 -50 29t-21 69z" />
<glyph unicode="&#x152;" horiz-adv-x="892" d="M2 317v1170q0 107 34 175t85 103q59 39 119 39h6q96 -10 157 -80q61 70 160 80h6q58 0 117 -39q121 -80 121 -278v-586q0 -196 -121 -276q-26 -17 -55.5 -27t-45.5 -11l-16 -1v24v25q0 -2 2 0h13q18 4 32 14q43 30 43 107v878q0 69 -34 99q-24 22 -54 22h-2h-4 q-6 0 -10 -2q-21 -4 -33 -14q-45 -27 -45 -105v-1464q0 -68 37 -98q23 -23 51 -23h4h2q7 0 13 2q16 4 32 12q43 30 43 107q0 106 66 149q33 23 63 23h19v-25q0 -198 -121 -278q-26 -17 -55.5 -27t-45.5 -11l-16 -1h-6q-99 10 -160 80q-61 -70 -157 -80h-6q-60 0 -119 39 q-51 35 -85 103t-34 175zM147 170q0 -65 37 -98q23 -23 52 -23h4h4q6 0 10 2q18 5 33 12q45 31 45 107v1464q0 66 -37 99q-22 22 -51 22h-4h-4q-7 0 -11 -2q-18 -4 -32 -14q-46 -28 -46 -105v-1464z" />
<glyph unicode="&#x153;" horiz-adv-x="884" d="M2 317v584q0 107 34.5 176t84.5 103q59 39 119 39h4q98 -10 159 -80q61 70 160 80h6q58 0 117 -39q52 -34 86.5 -103t34.5 -176q0 -196 -121 -276q-26 -17 -55.5 -27t-45.5 -11l-16 -1v24v25q0 -2 2 0h13q18 4 32 14q43 30 43 107v293q0 66 -34 100q-25 20 -54 20h-2h-2 h-2q-6 0 -10 -2q-24 -5 -33 -12q-45 -31 -45 -106v-879q0 -68 37 -98q23 -23 51 -23h4h2q7 0 13 2q16 4 32 12q43 30 43 107q0 106 66 149q33 23 63 23h19v-25q0 -198 -121 -278q-26 -17 -55.5 -27t-45.5 -11l-16 -1h-6q-99 10 -160 80q-59 -70 -157 -80h-6q-60 0 -119 39 q-51 35 -85 103t-34 175zM147 170q0 -65 37 -98q23 -23 52 -23h4h4q6 0 10 2q18 5 33 12q45 31 45 107v879q0 63 -37 100q-23 20 -51 20h-4h-4q-7 0 -11 -2q-22 -6 -32 -12q-46 -32 -46 -106v-879z" />
<glyph unicode="&#x178;" d="M2 317v25h18q31 0 64 -23q63 -41 63 -149q0 -65 37 -98q23 -23 52 -23h4h4q6 0 10 2q18 5 33 12q43 30 45 107v1464q0 109 63 150q33 20 64 20h18v-1487q0 -107 -34 -175t-85 -103q-59 -39 -118 -39q-60 0 -119 39q-51 35 -85 103t-34 175zM2 901v903h18q31 0 64 -20 q63 -41 63 -150v-878q0 -64 37 -101q22 -20 52 -20h4v-25v-24q-60 0 -119 39q-50 35 -84.5 102.5t-34.5 173.5zM2 1999q0 40 21.5 69t52.5 29q29 0 50 -29t21 -69t-21 -68t-50 -28q-31 0 -52.5 28t-21.5 68zM332 1999q0 40 21 69t50 29q31 0 52.5 -29t21.5 -69t-21.5 -68 t-52.5 -28q-29 0 -50 28t-21 68z" />
<glyph unicode="&#x2c6;" horiz-adv-x="462" d="M66 1464l153 205l123 -162l31 -43h-107l-47 64l-47 -64h-106z" />
<glyph unicode="&#x2dc;" horiz-adv-x="370" d="M2 1714l2 10q1 0 2 3.5t3 9.5t5 10q1 1 5 6.5t6 8t6.5 6t9 5.5t10.5 3q14 0 25 -15q11 -18 18 -37q3 -12 6 -18l2 -2q4 0 7 6q1 2 3 7t3 7q1 1 3.5 8t6.5 16.5t8 18.5q29 43 55 45q21 0 39 -24q17 -24 31 -64l4 -10l-4 -10q-4 -11 -10 -23q-16 -26 -35 -26q-14 -3 -27 14 q-10 13 -16 35q-4 10 -8 18q0 1 -1 2t-1 2q-4 -4 -4 -8q-2 -2 -3.5 -5t-3 -5t-2.5 -2v-2l-26 16l26 -16q0 -14 -18 -41q-27 -45 -55 -45q-21 0 -37 22q-18 21 -33 64z" />
<glyph unicode="&#x2000;" horiz-adv-x="1123" />
<glyph unicode="&#x2001;" horiz-adv-x="2247" />
<glyph unicode="&#x2002;" horiz-adv-x="1123" />
<glyph unicode="&#x2003;" horiz-adv-x="2247" />
<glyph unicode="&#x2004;" horiz-adv-x="749" />
<glyph unicode="&#x2005;" horiz-adv-x="561" />
<glyph unicode="&#x2006;" horiz-adv-x="374" />
<glyph unicode="&#x2007;" horiz-adv-x="374" />
<glyph unicode="&#x2008;" horiz-adv-x="280" />
<glyph unicode="&#x2009;" horiz-adv-x="449" />
<glyph unicode="&#x200a;" horiz-adv-x="124" />
<glyph unicode="&#x2010;" horiz-adv-x="581" d="M0 508v24v117v25h475v-25v-117v-24h-475z" />
<glyph unicode="&#x2011;" horiz-adv-x="581" d="M0 508v24v117v25h475v-25v-117v-24h-475z" />
<glyph unicode="&#x2012;" horiz-adv-x="581" d="M0 508v24v117v25h475v-25v-117v-24h-475z" />
<glyph unicode="&#x2013;" horiz-adv-x="575" d="M0 504v24v117v25h475v-25v-117v-24h-475z" />
<glyph unicode="&#x2014;" horiz-adv-x="794" d="M0 502v24v117v25h694v-25v-117v-24h-694z" />
<glyph unicode="&#x2018;" horiz-adv-x="241" d="M0 1636v170h18q42 0 70.5 -24.5t42.5 -61.5q14 -43 14 -84v-147v-23h-18q-43 0 -71 25t-40 61q-16 43 -16 84z" />
<glyph unicode="&#x2019;" horiz-adv-x="239" d="M0 1468v170q0 43 16 84q12 36 41 62t70 26h18v-172q0 -41 -14 -84q-14 -36 -42 -61t-69 -25h-2h-18z" />
<glyph unicode="&#x201a;" horiz-adv-x="331" d="M0 -117h4q6 0 10 2q17 4 33 15q45 31 45 104q0 55 19 94t45 56q33 20 63 20h19v-24q0 -106 -34.5 -174.5t-84.5 -102.5q-59 -39 -119 -39v25v24z" />
<glyph unicode="&#x201c;" horiz-adv-x="460" d="M0 1630v148v24h18q42 0 70.5 -25t42.5 -61q16 -43 16 -86v-170h-18h-2q-42 0 -70.5 25.5t-40.5 60.5q-16 43 -16 84zM219 1630v148v24h19q42 0 71 -25.5t41 -60.5q17 -46 17 -86v-170h-19h-2q-41 0 -69.5 25.5t-40.5 60.5q-17 46 -17 84z" />
<glyph unicode="&#x201d;" horiz-adv-x="460" d="M0 1464v172q0 41 16 84q12 36 41 61t70 25h18v-170q0 -41 -14 -84q-14 -37 -42 -62.5t-69 -25.5h-2h-18zM219 1464v172q0 38 17 84q12 36 40.5 61t71.5 25h19v-170q0 -32 -17 -84q-14 -37 -41.5 -62.5t-68.5 -25.5h-2h-19z" />
<glyph unicode="&#x201e;" horiz-adv-x="550" d="M0 -117h4q6 0 10 2q17 4 33 15q45 31 45 104q0 55 19 94t45 56q33 20 63 20h19v-24q0 -106 -34.5 -174.5t-84.5 -102.5q-59 -39 -119 -39v49zM219 -117h4q6 0 10 2q17 4 33 15q45 31 45 104q0 56 19 94.5t47 55.5q14 9 29 14t24 6h8h19v-24q0 -198 -119 -277 q-59 -39 -119 -39v25v24z" />
<glyph unicode="&#x2022;" horiz-adv-x="350" d="M0 616q0 70 37 120t90 50q54 0 91.5 -49.5t37.5 -120.5t-37.5 -120.5t-91.5 -49.5q-53 0 -90 50t-37 120z" />
<glyph unicode="&#x2026;" horiz-adv-x="704" d="M0 98q0 41 21.5 70t52.5 29t52 -29t21 -70q0 -40 -21 -68t-52 -28t-52.5 28t-21.5 68zM219 98q0 41 21.5 70t52.5 29t52.5 -29t21.5 -70q0 -40 -21.5 -68t-52.5 -28t-52.5 28t-21.5 68zM440 98q0 41 21.5 70t50.5 29q31 0 52.5 -29t21.5 -70q0 -40 -21.5 -68t-52.5 -28 q-29 0 -50.5 28t-21.5 68z" />
<glyph unicode="&#x202f;" horiz-adv-x="449" />
<glyph unicode="&#x2039;" horiz-adv-x="362" d="M0 647l231 309l31 41v-215l-100 -135l100 -137v-215z" />
<glyph unicode="&#x203a;" horiz-adv-x="348" d="M0 299v215l102 137l-102 135v215l262 -350l-231 -311z" />
<glyph unicode="&#x205f;" horiz-adv-x="561" />
<glyph unicode="&#x20ac;" horiz-adv-x="663" d="M0 414v98h111v195h-111v98h111v96q0 201 118 279q59 39 119 39q58 0 117 -39q52 -34 86.5 -103t34.5 -176v-22h-19q-30 0 -63 20q-27 18 -46 56t-18 94q0 63 -37 100q-25 20 -51 20h-4h-4q-6 0 -10 -2q-24 -6 -33 -12q-45 -31 -45 -106v-244h219v-98h-219v-195h219v-98 h-219v-244q0 -68 37 -98q23 -23 51 -23h4h4q6 0 10 2q18 5 33 12q45 31 45 107q0 108 64 149q33 23 63 23h19v-25q0 -198 -121 -278q-59 -39 -117 -39q-60 0 -119 39q-118 78 -118 278v97h-111z" />
<glyph unicode="&#x2122;" horiz-adv-x="544" d="M0 1292v512h16q17 0 31 -12t19 -27q6 -16 6 -34v-488q0 -12 8 -20l10 -4q6 0 10 4q9 6 9 20q0 50 28 66q14 8 27 8h18v194h-18h-2q-53 0 -78 60q-12 32 -12 61l37 2q0 -10 4 -16q4 -8 14 -8q17 0 30.5 -12t18.5 -27q6 -18 6 -35v49v25h19q13 0 30 -13q8 4 16.5 7t15 4 t7.5 2h2v-41v41h7q29 -7 49 -23q18 16 51 23h4v-39v39h2q21 0 45 -17q45 -31 45 -106v-318h-74v367q0 12 -8 20q-3 5 -10 5h-2q-1 -1 -4 -2.5t-4 -2.5q-8 -8 -8 -20v-367h-74v367q0 14 -6 20l-11 5h-2l-10 -5q-8 -8 -8 -20v-367h-72v119q-3 -73 -45 -102q-9 -6 -19 -10 t-17.5 -5.5t-8.5 -1.5h-2v39v-39h-2q-1 0 -8.5 1.5t-17.5 5.5t-19 10q-43 30 -43 106z" />
<glyph unicode="&#x25fc;" horiz-adv-x="1218" d="M0 0v1219h1219v-1219h-1219z" />
</font>
</defs>
</svg>
